<mxfile host="app.diagrams.net" modified="2022-06-08T15:42:10.911Z" agent="5.0 (Windows NT 10.0; Win64; x64) AppleWebKit/537.36 (KHTML, like Gecko) Chrome/102.0.0.0 Safari/537.36" etag="QFswPPTFF1UdR52uCLpB" version="17.4.1" type="github" pages="4">
  <diagram id="hs_Fg-f1CApUNWQWiNQo" name="第 1 页">
    <mxGraphModel dx="2858" dy="983" grid="1" gridSize="10" guides="1" tooltips="1" connect="1" arrows="1" fold="1" page="1" pageScale="1" pageWidth="827" pageHeight="1169" math="0" shadow="0">
      <root>
        <mxCell id="0" />
        <mxCell id="1" parent="0" />
        <mxCell id="6BemzrKqPuLNqV1ixvIP-1" value="" style="shape=image;verticalLabelPosition=bottom;labelBackgroundColor=default;verticalAlign=top;aspect=fixed;imageAspect=0;image=data:image/png,iVBORw0KGgoAAAANSUhEUgAAB0UAAAQPCAYAAABvOjOzAAAgAElEQVR4nOzde5ScZ30n+F/1Xa2LJcsdS9hgCWMkW4TI2ngQBIwYHJaBnazkWdZJcBYSTBISwGaWEOeQiTAHDsMJS5JhEnNOzFjO2BNYEqSQxcQZM5admzIwtgxI2Ba2JbCxRKOLW1JLfa39w9NNqVSXt279Vr31+ZzTh6q3nnqe31vdXRb17d/z5vL5fD4AAAAAAAAAMqov7QKyanJ6NqZnX8ibhwd6U64GAAAAAAAAupdQtMlOTczE/h+cjn0/OB0/ODEZERFXrh6OzS9dFsuH+wSkAAAAAAAAsMByts9tjpnZfBwZm4w/vP+Z+MGJiZJj3rB+efyfP31xLB0SjAIAAAAAAMBCEYo2yfNnpuOWzx+IqZnKL+crL10S7/2Xl+gYBQAAAAAAgAXSk3YBWTA+ORP/8b89WzUQjYj45jOnYv8PxmNmVhYNAAAAAAAAC0Eo2gR9PT3xnedOJx7/dwdOxMT0bAsrAgAAAAAAAOYIRZvgu6PjNY3/3rGz0ZPLtagaAAAAAAAAoJBQtAl+cGKypvGjJ6diqN9LDwAAAAAAAAtBMtcEa1YO1TT+RcsH48yU7XMBAAAAAABgIQhFm+AlF9YWiq6+YCDy+XyLqgEAAAAAAAAKCUWbYGpmNl77sgsSj//XP3VRDA/0trAiAAAAAAAAYI5QtAkWD/bGL7zq4rhgUV/VsW9YvzxetHxgAaoCAAAAAAAAIiJyefu4NsX0bD7GJ2fjs7ufjW8+c+q8x/t7c/EL/+LieO0VF+gSBQAAAAAAgAUkFG2y8cmZODE+HXueGotDR8/G8uG+2PCixbFu1XAMD/REf6/mXAAAAAAAAFhIQtEWGp+cib6eXAz0CUIBAAAAAAAgLUJRAAAAAAAAINO0MAIAAAAAAACZJhRNaGpm4RpqT03MLNhaAAAAAAAAkHV9aRfQCX5wYiI+8uWDMT65MGHlppcsjZtetzqWLfLtAQAAAAAAgEbpFK1ioQPRiIiHv3cy7vi752LszPSCrQkAAAAAAABZJRStII1AdI5gFAAAAAAAAJpDKFrG+ORM3PkPh1MJROc8/L2TcXxcKAoAAAAAAACNEIoCAAAAAAAAmSYUBQAAAAAAADJNKAoAAAAAAABkmlAUAAAAAAAAyDShKAAAAAAAAJBpQlEAAAAAAAAg04SiAAAAAAAAQKYJRQEAAAAAAIBME4oCAAAAAAAAmSYUBQAAAAAAADJNKAoAAAAAAABkmlAUAAAAAAAAyDShaB1+9doXxfBAb9Pmu/bly+N/uWxp0+YDAAAAAAAAfkwoWocrVy+OxYPNe+kuWtIfl60catp8AAAAAAAAwI8JRQEAAAAAAIBME4oCAAAAAAAAmSYUBQAAAAAAADJNKAoAAAAAAABkmlAUAAAAAAAAyDShaAt94GdfHJetHEq7DAAAAAAAAOhqQtEWGh7oieGB3rTLAAAAAAAAgK4mFAUAAAAAAAAyTSgKAAAAAAAAZJpQFAAAAAAAAMg0oSgAAAAAAACQaX1pF9DOXnfFBXHl6uHzji8ebH6WfOXq4bh+08h5x5cP+xYBAAAAAABAIyRuZQwP9Ma1L19e8rHp2XzT17ty9eK4cvXips8LAAAAAAAA3c72uXWYnml+KAoAAAAAAAC0hlAUAAAAAAAAyDShKAAAAAAAAJBpQlEAAAAAAAAg04SiAAAAAAAAQKYJRQEAAAAAAIBME4oCAAAAAAAAmSYUBQAAAAAAADJNKAoAAAAAAABkmlAUAAAAAAAAyDShKAAAAAAAAJBpQlEAAAAAAAAg04SiAAAAAAAAQKYJRQEAAAAAAIBME4oCAAAAAAAAmSYUBQAAAAAAADJNKAoAAAAAAABkmlAUAAAAAAAAyDShKAAAAAAAAJBpuXw+n0+7iE5zdmo2hvrlyQAAAAAAANAJhKIAAAAAAABApml3BAAAAAAAADJNKAoAAAAAAABkmlAUAAAAAAAAyDShKAAAAAAAAJBpQlEAAAAAAAAg04SidJSJ6dm0S6CDzebzaZcAFfkZ/bGpGa8F7e/slH+XAAAAAHSKvsI7X3p4NL708GhatUBVt9+4Lgb7qo+DUr5x8GT8h689k3YZUNbHt700Lls5lHYZbWFmNh93/sNz8dATJ9IuBcq6+6ar0i4BAAAAgIR0igIAAAAAAACZJhQFAAAAAAAAMk0oCgAAAAAAAGSaUBQAAAAAAADINKEoAAAAAAAAkGlCUQAAAAAAACDThKIAAAAAAABApglFAQAAAAAAgEwTigIAAAAAAACZJhQFAAAAAAAAMk0oCgAAAAAAAGSaUBQAAAAAAADINKEoAAAAAAAAkGlCUQAAAAAAACDThKIAAAAAAABApvWlXQB0u1wud879fD6fUiUAAAAAAADZ1LGh6N03XVXy+I137F/gSlqrW86zWxUHonPHKgWjc88pHFPpWKXjleYpNSfn/k6W+z2sNibp73W5ceWeU218Pe8b7VBrkte82thav2/laqk0rtJzoBUa+Vms9Fw/vwAAAABkUUdun1vpg7wkHxB2ilae5903XTX/RfaUClvLHU96jOZI8/2r1vnbpdakYWot4Wnx87rlvyt0n3r+W+9nHgAAAIAs6rhO0eIP6mrpPOok3XKetFa5Ls+54+XCT92hrdHI73WtnVvl5r77pqsSzdVJtTZTrV2hOupoF9V+div9PpX6HUzj9w8AAAAAWqnjQtFCxR/WZfXDu245T5pnbvvbclvx6gRN30L+Xt94x/6G/pii3WptZlhTrbvU+y2dau5n1x9SAQAAAMALOjoUrabSh91JrztX6sPESh+SJxlfaY1GP4Cvtn6px5u5PrUpvHZn4bFmzl0qGNUJSqepFpbW8z4mLKLb6P5kzumzM/4tkFFDA73R1+uP3wAAAKCUjg5FW/3hXrkPzEutW+3D+nJ1JvlQPsl51rs+6av3Q8lK3Z7VOkFbFcSSXCf9XnZSrfXK+vnRvRrtFCebFg/1xr/9k31pl0GTXbNueWx97aro6+1NuxQAAABoSx0XihZ/uNfqLsd6ruXZjGtzNXKeldYvtZ2eMKCzFHeXluo2LR6fdCyt1cjvda1d6+Wem/Q57V5ruwS1jZwrtItK1xAmux797ljaJdBkq1YMpl0CAAAAtLWetAuoR6Wuy2Z2Q1S6jl4zg9m5sDLpdfuKz1PA2X3y+fz8V+H9co+Xe26559E6C/X+NTdfM68lWjx3syStNcn7m/dAaFyzf8cBAAAAoB10XKfonFIdj+2g1nqSdn0mnbfdXg/gfPW8fzUj7Eu67XfhuHaptZI03/eEsGRBpT/68jMOAAAAQFZ0ZKdooVIdllkMBrvlPKGbtPL3utlzt2Ot3gOh+YSgAAAAAGRVx3aKFiu+/l2adbR6/krn6cNM6DytfP+qNHe9232nUetCrA9Z5PcFAAAAAF7Q8Z2iAFRWbmvMdtRIrbWGvJ30ukAz+MMpAAAAALpZx4Wid990VckPrwuPlfrQr/gaWUnXSrJGtQ/Wy9Vcbe2k59mK9eksuVwucrlc2fs0T5Lft1Jj5x6r5/0rDZ1SazPf27x/kiXFP7tJf1/9vAMAAACQVR27fW6SD+2Kt1ms54O+hXpOmuu3W8hBa1ULS/P5/AJVkg31bE3bzN/rpL+zhe+Hd990VUsDklbX2swtdBv970QztyaGRjSytb6fYwAAAAC6Qcd1ilb6gO7GO/aX/PC8ljmSPLeW47WumWR8ufOsZX0fdEL96v19r/X3Ok2dVGtEY+9pzX7/hnZR7+9qO/6OAwAAAECjcvmCtrAvPTwaX3p4NM16Uqdrsr3dfuO6WDrUm3YZTVXcuVlPp+bcHHPPLb6f9HlZ99+fHov/8LVn0i4Dyvr4tpfGZSuH0i6jLZydmo0/+6fD8dATJ9IuBcrq5O2G3/hv/yntEmiy//WakXjf9Wtj0WC2/q0MAAAAzdKx2+dCFpTayjaXyyUOMyOSB59JxhaOLx5beLzU7eLnNCPsBQAAAAAAaIaO2z4Xul1x2FjpGqG1jG1mLeXCXgAAAAAAgDToFIUOVakrs5YxpZ6Ty+XO6Vgt1z1abf7i5wMAzJmeOBXff/gLEREx8rJrY8nIFSlXBAAAAGSZULSI64hC8whDAYByTo4+EU/v+dz8faEoAAAA0EpCUUhR8TU5546lrbBbtPBYPfMAAAAAAACkTSgKKas3OEzShdnqTs1q87dj4AsAAAAAAHQfoSh0mOLu0lLdppXG1rNOueeVm79STQBA5xp7bl8cPbgnIiKGlq2KlWs2x8DileeMmTx9NI4/80iMHzsUwxdeFhevuy4mTx+N5/bfG8tWb4gVl24qO//s9GQ8t/8r0dM7EKs3vDWmJ07Fkcf/a0yePhbDF14WKy69+rz1IiJOjR6I499/OKYnTkVExLLVG2Llms0V5z41eiBGv/vQfI1Jzy8i4vgzD8fYc/tidnoylq3eEBesfkX0DS6paS0AAABgYQlFoQMVh5SV7lcKQpvRuVkpMAUAsmF64lTs3fmBGHtu3znHBxavjNf+6l/P3z/+zMPxrS/fOh9ORkQ8vedzsXjFZTH65EMxtGx1vOZdf1l2necPfzse/9rvR0RE39DS+M59HztnroHFK2Pjtk/PX3908vTRePgv3hvjxw6dN9fA4pWx6f/4jzF84WXnzT05fiye/PvbIyJiaNnqWLlmc6LzGz92KPb/7cdKjlv3xt+KkcuvrbqWUBQAAADSIRQFSqrWJQoAdI9DX//PMfbcvujpG4gr3/S7MbD4whg/dih+9OTfzY+ZnZ6Mffdunw8xL153XUxPnIqjB/eUDC2r+daXb42BxSvjsldui9EnH4rxY4di8vTR2H/fx+Jf3HhXREScHTsc48cOxcXrroslI1fEkpEr4kdP/l08+82dMXn6aDz597fHT/7cvz9v7rmQcsWlm2Jq4mTi8/vmX9863wF7xetvjsnTR+P7j/y/cWr0QOy79/fiNb/yl+d1lhavBQAAAKRDKAoAAFQ0OX4sIiL6BpfOb2G74tJNcckrt82PmQsiIyIuf+174rJrfikiIo4e3BPf+utbY3Z6sqY1l4xcERu3fToGFq+MtZvfFd/4/Lvj1OiB+a8lI1fEstUb4rW/+tfnBJEr12yOk6NPxNhz++Lk6IGSc/f0DcRP//yfznecfudvP57o/ObC3ave9LuxbPWGiIgYumB1PPLF98bs9GQcefz+ePGmGyquBQAAAKRDKAqU1OptdwGAznHhZa+K5/Z9JSZPH41//E//JkYuvzZ+Yt1189vFRkSMH//e/O3CLWJXrtkcA8Mr4+zYczWtOXL5tfNhZ0/fQKxcszlO/c+Q8/SxQ/Mh48DilTF+7FCMPvnQfPA6efpYxblffPUN54SUtZ7f0YN75q89OjszWXJMubUAAACAdAhFAQCAii5ed11Mnj4ah75xd0yePhpHHr8/jjx+f4xcfu389rSFW+QOLVvd9BqGV7xk/vbs9ERElL/WaTU9vQPn3E9yfoWh7tN7Ple1xnJrAQAAAOkQikIGFF//0/VAAYBme/GmG+LFm26II4/fH99/5Asx9ty+GH3yoTjy+P1x8brrYuiC1RHPvDB28vTR866tWavCDsyIiLHD++dvD13wQuj69J7PzQeiV77pw3Hxup+Nnr6BeOSL743jzzxc03pVz68g6L32N/42+gaX1HtqAAAAQAp60i4AAABob6dGD8xvTXvxuuti/Rs/NP/Y3HVEl1z0svljBx78o/nbT/797TVvnRsR8f1HvhCjTz4UES90ac7d7ukbiKUjL3+hrh++sJ1u3+CS+UB0euJUTIwfrWmtROc38uPze/abO8+bY24cAAAA0J50igIAABUd2P1Hcfr4obh43XXRN7Akjjxx//xjF6x+RUS8ECY+vedzMT1xKo48fn8cPbgnevoG6w4LZ6cn41tfvjUGFq88Z45LXrltvktzyU9cEcefeTimJ07Fw3/xm3HB6lfE6HcfqjmETXJ+q696azz7zV1xavRAPPn3t8fokw/FBatfEWeffy7OjD0Xp0YPxGve9Zct2ToYAAAAaJxOUUhZLpc75wsAoN1cdPnrYnriZHz/4S/E03s+F+PHDsXQstWx4S0fjWWrN0RExMDilbHpbX88HwpOT5yK6YmTsXbzu0oGhb29g/O3e/rOv+7m6g1vjRWXbjovEL38Z94zf3/t5nfFyOXXRkTE2HP74vsPfyF6+gbixZtuqGm9JOfX0zcQG7d9Oi555bZz1ht98qE4NXogVq7ZHH2DSxOdGwAAALDwdIpCikqFoLlcruq1QAuf18yxAAClzF1vc+y5fTEzMxGLlq0uGXQuGbkiXvOuv4yzYy90T16w6hXR0zcQz+2/97yxy1ZviH/5gX8su+bQ0lVx5Zs+HOPHDsXE+NFYcemm88b0DS6Jn/y5fx/TE6fi5OgTsXjFZfPXMr3i9TcnXi/p+Q0sXhnr3vhbse6NvzV/jhFxXm3Vzg0AAABYeOeEotdvGonrN42kVQtUNTE9m3YJqSsOUit1l5Ya283B6E+vWRp333RV2mVAWbNd/PtZrLcnF7967YviV699UdqlQFlnp2ZjqL+7Nl6Z65qsZqhMqFiP4Qsvi+ELL6s4pm9wScnQtFZJzy+iuecIAAAAtF53fYqzwD6687HY/+xY2mVkymCfH9k5+Xx+/quRMd2kx/bETfXFf342vvjPz6ZdRqb4Gf2x/l6vRbO9965HY3RsIu0yMqXbAlEAAACATmb7XAAAoKXWbv6VODt2OIaWrao4bunIy2Pt5ndFRMTIy65diNIAAACALiEUhRTl8/nztrjV1QkAZM3qDW9NNK5vcEmsffW7WlwNAAAA0I2EopCyekPQStcSrWUMAAAAAABA1rkQEnSY4hC12jVFk44FAAAAAADIKp2i0IGqhZ2F9wWhAAAAAABAtxOKttAVq5bEBcP9aZcB0BIjywZi8aD/jECn2HDJshj2OwsAAABAl/LJWAv9wqsvTbsEgJbZcuVI2iUANXjPdWvTLgEAAAAAUuOaogAAAAAAAECmCUUBAAAAAACATBOKQhfI5XKRy+XSLgMAAAAAACAVQtEWuv3+p+Pg6HjaZQC0xL17D8fu74ymXQaQ0Ce+/HicGJ9KuwwAAAAASEVf2gVk2ejJiRifnE67DICWOD0xE6cnZtIuA0jo2eNnY2p6Nu0yaAM/PPm92Ljhh2mXQZMtXzkeTx87GYP9/u4VAAAA5rzogstjUf+SiBCKQuqKt7XN5/MpVQIAdINPP/BrcfnLr0q7DJpsOiIefDLtKgAAAKB9nDx7LC6/6Kfi32y8JSKEopCqUtf5zOVyVYPRwucVjk0SsJZ7brXnzz2Wz+dL3k4yX7maAICFMz0zGb/xuv8n7TIAAAAAWurrh+6Lp44+On/f3krQYUoFjZWOVxpTeL9cQFvpWKX5ktYAAAAAAADQajpFoUOV67is1IlZqau0eEzSxyuNT9I5CgAAAAAA0GpCUegwc1vWJtlmtx7NDi4FoQAAAAAAQNqEoi105YuWxsjSwbTLoI0VX5Nz7ljS57UiGG3mfEm6Selca0aG0y4BqME1L10Rw4P+6QcAAABAd/LJWAu97VWXpF0CHaDWELJasFj4eD0BZz0hba1zkg3XvHRF2iUANXjH616SdgkAAAAAkJqetAsA6lcYWDYaXrZiK95WzAkAAAAAAFArnaLQYSoFjeUeK3U86bFyj1W7n2ROAAAAAACAhaBTFAAAAAAAAMg0oWgLfeorB+Lg6HjaZQC0xL17D8e9ew+nXQaQ0O9+cX+cGJ9KuwwAAAAASIXtc1tofHImxien0y4DoCVOT8ykXQJQgxPjUzE1PZt2GQAAAACQCp2iAAAAAAAAQKYJRQEAAAAAAIBME4oCAAAAAAAAmSYUBQAAAAAAADJNKAoAAAAAAABkWl/aBWTZlS9aGiNLB9MuA6Al1owMp10CUINrXroihgf904/mmM3n4/vHJtIuA6Aplg/3xQWL/DcSkpqcno2TZ2fi1MRM2qUAkFBfby4uWtIfg3365Ohu/tXfQm971SVplwDQMte8dEXaJQA1eMfrXpJ2CWTI6YnZ+PDOp9IuA6Aprt80EtdvGkm7DOgYs/mIv3x4NB564kTapQCQ0MjS/vjE9ZenXQakTijagGeOfzfOTJ5qaI5LV7wsFg0saVJFUFkul4uIiHw+n3IldIJjpw/H0VOHG5pj5ZJVceHiVU2qCAAAAAAA6iMUrdMzx78bn/qb90dvT/1dF/n86bjsokvj5us+0cTKAJrjY//fr0QuGussy8f34tM33NukigAAAAAAoD5C0TqdmTwVvT0viSMn31/3HH09B+InJu9vYlUAzTM1fTqOn6n/PS4iYsWi9zSpGgAAAAAAqJ+r6kLKcrncOV8A0Aq//flvx4nxqbTLAAAAAIBU6BSFFJUKQXO5XNVrfhY+r3Bs8XHXEAVgzumJmZiank27DAAAAABIhU5R6DDlukmLj+s6BQAAAAAAeIFOUehQ5bo/y3WOAgAAAAAAdCudotBh5kJPgScAAAAAAEAyQlFIUaluzyTX/xSMAgAAAAAAJGf7XEhZkhC0ULUgVFAKAAAAAABwLp2i0MEKA9XicLXWsBWAbHv9+otieNDfwwEA0Pnuvumquh4DALqbUBQ6TD6fn/+q5bHCx+keO3bsiG3btsXevXvTLgVI2dtedUksHuxNuwwAAGipG+/YLxgFAErSLgCQcbt27Ypdu3bF1q1bY/v27bFx48a0SwIAAIC2UWuIeuMd+1tUCQDQSkJRgC4hHAUAACCL7r7pqvM6REsFnZXCzKRBpy5UAOhcQlHIMFvlUopwFLrT1Mxs9Pe6cgIAAJ2rXOg5F4gWB5uljgEA3csnYwBdateuXXH11Ve75ih0id/94v44MT6VdhkAAFC3G+/YPx9yzt0uvH/3TVfp5AQAyhKKAnQ54Sh0h9MTMzE1PZt2GQAAkDi4rGXc3NjicHTudqvD0mafEwDQfLbPBSAizt9WFwAAAJqpVcFh4Ra5aW6ZWxjMNmMcANBcQtEUTY6fjv/8sXvjvt//dtql0EHOnj0be/bsSbsMMmzXrl1x8ODBeOU7BiKWpF0NAAAAnaw44CwXBCYdV/ycdgkW5+oo7lqtdxwA0HxC0RQNDC+On/nffyp+8VXvT7sUOsjQ0FBs3rw57TLoEDt27Ihf/uVfTjx+48aNsX379ti6dWu8757Xx/EzLSwOAACAzGplGDr3vHYME0uFnoXHax0HADSPUDRlL/3JS2LLli1plwF0ucIwFAAAAJohacCXtCu01HNKbbVb3IGZRuhYvKVvo+MAgMYJRQG6mDAUgE50z7s3RETE2/90X8qVAACVJA0jk4wrFx5Wup5omtvTtur6qQBA/YSiAF1ozZo1sX379njnO9+ZdinAAnn9+otieNA//Vh4cwFmsVoDzXLz1DImyyFqpXPP8nkD0L6KuzTLBZRJx1VTbjvdhQ5EmxkEAwDN5ZMxgC4iDIXu9bZXXZJ2CXSh4o7OJMFmOYXBXqWgtVwX6T3v3hD3vHtDJgPCUufcyGvdrBqyvC4AyRV3blYLR6uNq6QwGK21A7PRjk1hKAC0P6EoQBcQhgKw0EqFVYWh5UKbWztrwWi5UDDN1xoAykkaWNYTbDZ6/dCkY5NeH7QZawEAzSUUBciwVatWxZ133ikMBaBtZCmQBADqsxDh4Y137F/QrkyBKAC0P6EoQIa9+c1vTrsEoE2cnpiJxYO9aZcBZTXr2qPNXrN4TKkOzCTbA5fazrfRdcvNXe14rWtXmrN4bOH9Vpxzude60roAZEelLs1S2+0Wdo+Wu+Zo8XOqEWoCQOcSigIAdIF/98X98XvXr4/lw/1pl0KXKNyudu5+Oc289mita1S79mjx+MLnFdZZy3U9y42tZ91aJV27VMhYavvhaq9nvetWOlbLugBkS6lAMsm1R4u7RgGA7tSTdgEAALTe5MxsTE3Ppl0GXebtf7rvvECtWKXAqxFz6yUNZmtRGNhVmrPUY5WuAVr4eCPrllPP2s36XiRdt1IYDACl3HjH/kTdmzo8AQCdogAAQEtV6jRs9ZpJH0/afVlt3nKdlI3qplCwli5jAAAASEooCgAALIjCsKsdgq5arttZTbmO2Fqu65l13XjOAAAAtA+hKAAA0HTt3uXXqvpKXTOz1DoL8bq02/egXeoAAACgO7mmKAAAQINKXTO11hCw3HVXy0lyHdJ2V+qci8PcTj4/AAAA2odQFAAAaJnCQKtU52Kp4CutEKy4hnrqqPacckFfo12dSeZr1drl6qkWbpZat/hYrcFovd83AAAAsi+Xz+fzaRfRiQ4c2Ruf3f3ZOHLy/XXP0ddzINavuj9ufctnmlgZQHO8757Xx/Eztzc0x4pF74nPvP3BJlUENGLXN34Qb716VfT3+pu4bvfBnW+MT237WkNznDw7E++5+/GKY8oFU7VeYzNpKFbqeqDVQr5GwrPiuSvNVaqOUuNLhYNJ5koyXyNrJ31tq41Ja12o5vpNI3H9ppG0y4COcXZqNv7snw7HQ0+cSLsUABIaWdofn7j+8hjq95kA3eXrh+6Lp44+Gjds+lBEuKYoAEBX2PrTL0q7BLpMrcFUtQAtyXyNrtmIZq/dynOpZ+1mvP5prQsAAAARts8FAIC28jd/8zexd+/etMsAAAAAyBShKADQsXK5XORyubL3oRPt2bMnrr766ti2bVvXhqPtcH1RAAAAIFtsnwsAdIVqYWnWL7N+emImFg/2pl0GNdi1a1fs2rUrtm7dGtu3b4+NGzemXdKCsR0qAAAA0Gw6RQEAusC/++L+ODE+lXYZ1GHXrl1d3zkKAAAA0CihKADQFfL5/PxXpWNZNTkzG1PTs2mXQQOEowAAAAD1E4oCAB1j7pqhSa4bWsvYwvGVjpe6XfycwuOub0orCEcBAAAAamBtKd0AACAASURBVCcUBQA6QqnwsRljm1lLuVAVWkE4CgAAAJBcX9oFANCZfvTUo7H3S39QcUxfz4H49h1vWKCKyKo3v/nN8du//dvz9wu3ui0XOCYZU+o5c92dc8+fe27x9rrV5i9+/t69e+MDH/hAojpaZeWbb41f+IXbYmb8eKp1UN3BgwdrGr9r167YtWtXbN26NW6//fZYtWpViyoDAAAA6FxCUQDqsuLF6+Mn//VvVhyzdPDT8f7rti9QRWRVJwY8xUHpmjVrYvv2dH8X7n58Ubzj5ptj6UD2r5/a6Xbs2FFzMLply5a4+eabO/L3BQAAAGAhCEUBqEtv/2BcvO6aimNWLFoeW7ZsWaCKoHGF3aKFx+qZp1javwt/cejR2Lx5Y4wsG0y1DqrbvXt34rFbtmyJ7du3p/7zBQCwkO5594aIiHj7n+5LuZKF0W3nCwCtIhQFADpKku1wW30dz2rzFz9eT7DabNdtGInli/vTLoMmEYYCAJ1iLtArVmvAV26edrOQ51ttjBAVAM4lFAUAOsJcF2e5+9XG1rNOueeVm79STWnb+tMvSrsEmkAYCgB0kuIOx0aCzcKAL62AtFrH5kKf79v/dF/Zmu5594a4590bBKMAUKAn7QIAAJLK5/PzX4X3ix8vNbbUPM2spdTxZqwDES+EoQ888EA88MADAlEAoCOUCuuyHNC12/k2I5gFgKzRKQoAUKBalygsJJ2hAEDWZDkYLaXbzhcA2plQFACgC5wYn4rlw64p2imEoQBAtynV0dhIoJh0viTjiscU3q+3xmZde7QV6xaPKdymt3h8pU7Uaq9jI+sCQD1snwsAUKDSlredvB3uR7/0WIyOTaRdBgnccssttskFADpeYWhWbQvXwq1n574Kj9cq6XxJxxU+Vmr83LG559Z6vq1QajvfUudb6pyL66p03dLi+ZLU0+i6AFAvoSgAQBeYnJlNuwQSWr58edolAAA0RXH4VSosLBd81RuMJp2vFYFbvefbjBrm1itct9nnNve/leat1I1bz/c46boAkITtcwEAAACAlikOCts53GpGbWmcb5I1kmxnW8/cxefYrPNt558TADqTUBQAAAAAaLm5a0SWCgrr3Sq3nGbPV49K55uWJNftTKpcV2y5c22H7wkA3U0oCgAAAAA0Va1buDY7NFzoELITrn/ZqhqLrwNabbtcAEiLa4oCAAAAAG2n3HU5Wz1fs9fNqlKvU63Bp9cagIUkFAUAAAAAWqIw8CrVQVi4BWup59UasiWdrxnrlgr06jnfNEPB4jrqqaXac5r9PQaAeuXy+Xw+7SI60YEje+Ozuz8bR06+v+45+noOxPpV98etb/lMEysDaI733fP6OH7m9obmWLHoPfGZtz/YpIqARvzXb/0wtlx1UfT3+pu4bvfBnW+MT237WkNznDw7E++5+/EmVQSQrus3jcT1m0bSLgM6xtmp2fizfzocDz1xouK4ckFZLdebLN6WtZIk1ygttXbSceXGlwv8qs1VbXyS862nS7ORALaW68DW81rX+hoCyY0s7Y9PXH95DPX7TIDu8vVD98VTRx+NGzZ9KCJcUxQAoCv87E/+RNolkCG9Pbm4cvXitMsAaIqLlvSnXQJkUr0dngs1X7PnbXSeegLOesLCZgaMaX+PAaBWQlEAAKAmvbmIW667NO0yAAAAABITigIAADUZ6MvF5KnTaZcB0BSDg4MR0Zt2GUAXK76up45JAGgNoSgAQBc4MT4Vy4dtDwgAAO1GCAoAC8NVdQEAusBHv/RYjI5NpF0GAAAAAKRCKAoA0AUmZ2bTLgEAAAAAUiMUBQAAAAAAADJNKAoAAAAAAABkmlAUAAAAAAAAyDShKAAAAAAAAJBpQlEAAAAAAAAg04SiAABd4BdffWksX9yfdhkAAAAAkAqhKABtZ8eOHfGBD3wg7TKgolwuF7lcriXPqWfual7z8pXR3+uffgAAAAB0J5+MAdA2duzYEWvXro0HH3wwbr755rTLgYry+XxERNPDS6B9LFu2LJYtW5Z2GQAAAEAT9KVdAADs2LEjbrvtttiyZUs88MADsWbNmrRLgnNUCz4rPT4XniYZX2ossLCShKDVxoyNjTWrnLZQfL5z51fueFbWBgAAIFt0igKQmsLO0AceeCDuvPNOgShtLZ/PJ/4qNheEFj9e+JxWbJs7Z3RsoiXzQtaMjY3Nf1UaU2p8ucCu0yUJHFsVSqa5NgAAANkiFAVgwQlD6SSFYebc/cLgslSQWfycdnDbzscEo7AAshqMAgAAQKezfS4AC8Y2uXSi4mCzsKOzXOhZfLxS96drkgIAAABA6wlFAWg5YSiUNxeyAvWr1JVZvLVqubGt3II1yZqlrpGZ9Hqa5eYsN7bedSvNWayec660ZtK1W7UuAAAAnU8oCkDLPPU/jsba310bW7ZsiV/6pV+Knp6e2LFjx3njtm7dGhs3bjzn2O7du8vOu379+li1alXLxm/cuDGWL19+zrE9e/bE2bNnmzJ+8+bNMTQ0VHb9blK4zWxhMFjYaVkqMCzcyrb4+cWPVZuvXFdnpTlr2Ra3VP3tuL0udKq5gCtJ6FU8thVb3JZbo1SwuGzZsvnjxeMLn1dYZyPn28i6tajlnAvXKKylcFy7rwsAAEBnEIoC0DLPfudERPTHNddcEz/84Q/Ljjt48OA5oejhw4fjk5/8ZNlQ8dd+7dfi53/+5xOPv+GGG+LXf/3Xz1nvtttuK1vPO97xjnjnO995zvy/8zu/U3b8zTffHFu3bp2//9hjj1UcX1z/3r1749WvfnXZ+nfu3HnO/Hv37o2rr7667PwPPPBAbNmyZf7+7t274w1veEPZ8V/96lfjzW9+8/z9Xbt2xbZt28qOf+SRR875flWaf2hoKB555JFYv379/LHPf/7z8c///M/xB3/wB/PHSl2Ts1JgWPx4uWt6lnpetbkqjU2ydW6p59S6dqGPfOQj59y/9dZbzwnVd+3aFXv37i353OXLl8ctt9xyzrHdu3eX/aOANWvWnPOzX23+UuMfe+yxOHz4cNl6iv8AotL4VatWnfOz0+zxa9asOa9zvdL4Un9gQXsqFeiVCswaCf6K5y1evxmKg8tK45Kcb+HYSuFf0nWbqdT3ZSECyrTWBQAAYOEJRQFomdfdeHn83z9zV9x2222xe/fu2L59+3kBSimrVq2Kr371q4nXqXX8mjVr4oEHHqhp/lrGr1+/vqbxGzdujDNnztQ0vpYOwy1bttQ0fuvWrS2fvzi4qqeTs9KYpMcrbVu7UF2ctWydu3z58oa7jE+cOFHTY5XGHz58OM6ePXteSHvfffeVHL9mzZq48847zzl21113xZ49e0qOX79+fdx+++3nHPujP/qjeOyxxxKPv+2228qGnBs3bjwnnK82fvPmzfGJT3xi/v7Zs2fj6quvLlvP1q1bY+fOneeMX7t2bdn5b7nllvPqWbt2bRw8eLDk+He+853nvZ5ZUU/QWBxkLVSolSSwLJQ0hE3rfJsxT73n3KnrAgAA0Blyefu21eXAkb3x2d2fjSMn31/3HH09B2L9qvvj1rd8pomVATTH++55fRw/c3v1gRWsWPSe+MzbH4yIH3dn1hKOkn2ltpGtdKxQqe1tk85daq5yz2v0ep/l5qm0BXCpuhr13rseje3b1sfIssGmzUln+uDON8antn2toTny+XycOnWqSRWdr95QtNL4Slurlpu/3seS1FZPPdXmrPR4KaW24K33Wp7V1i93zkleh1rWbua6dI/BwcEYGBhIuwzoGFMzs9Hf25N2GQDUaHJ6Ngb6vH/TXb5+6L546uijccOmD0WETlEAFshch9hcOPrJT34yPvGJT5yzLSyUUm9IWWmr21rCxmrb+NY6b1p/j/aLr740li/uT2VtqFU9gVSp62bWO1cztaqOpOfbinWrBZatPOdKa7fL9xwg6/p6cnH27NmYmppKuxQAEurp6Ynh4eG0y4DU+bMAABbUXDi6c+fOuOuuu+Lqq6+OXbt2pV0WKZsLLysFntUer2Vs4Xr1doIWhrX1dpUWB76FczXba16+0l/0k0mFgeCcLIdizTjfUnMAAABA1vlkDIBUrF+/Pnbu3Bl33nmncJSKnZyNhoTNnGtOqa15aw1GK239C9Qu6RarhePSCgaLa6injnrOt/D+QgfH1c651PelGTWmtS4AAADtRygKQKo2btwoHCUiftwlWSokLHyscEyS8UnnKn68lMLO0nJzz42rpNwcjXSuAj8OvaptJVspiCyeo9SxWoLV4jWrrVvufpJaq51vuWtr1hMcVrqd9JzLnU/xHEnXbua6AAAAZI9rigLQFubC0b1798Ztt90Wf/VXfxV33nln2mVBRJwbclbr7Kx0LdPCucqFqq3qIB0dm4iRZYNNnRPaQa0hVvH4eraibXTNRjR77Vacbz3PKTe+1a+1EBQAAKB7CEUBaCtz4Si0k1oDykpdpM1eK6nbdj4W27etF4wCAAAA0JVsnwsApKbSVrUArdYO1xftZmm9/r7vAAAA3UmnKAAA0JVsnZqutF5/33eA1nj88Ol4/PCZWLdq0f+8n97tjS9eEkdPT8X3j010zO2fedkF8djh03H01HTH3L7uqgvjH797IsYnZzvm9s9tvCi+vPdHEREdcXt4oCde87Llcf/+Yx1ze+WSvli/anH8w3ef75jbL75wMFYu7o+93z/VMbcrvRdetGQgVi7pr/l9HLqBTlEAAAAAAAAg03J5e9bV5cCRvfHZ3Z+NIyffX/ccfT0HYv2q++PWt3ymiZUBNMf77nl9HD9ze0NzrFj0nvjM2x9sUkVAI95716OuKUpERHxw5xvjU9u+1tAc+Xw+Tp061aSKANI1ODgYAwMDaZcBHSOfz8fExERMTU2lXQoACfX09MTw8HDkcrm0S4EF9fVD98VTRx+NGzZ9KCJ0igIAAAAAAAAZJxQFAAAAAAAAMk0oCgDQBW7asiaWL+5PuwwAAAAASEXvRz7ykY+kXUQnOnb6cHzj4Dfi9OSr6p6jJ3csLlryVLz2irc0sTKA5vjqt3bE2en/raE5FvV/Jd7yyl9uUkVAI1YtH4reHtcOIeJvH/uzeNOV72h4nsnJyfOO/fZffDe+8N+PxM9tHImbdnwnvrz3Rx1x+x+++3xsesnSeP9/eaJjbj9x5EysXNIXt/7Fkx1z++ip6RifnImPfvnpjrkdkYvHD4/H7//NoY65vXJJf3xt//H44//2TMfcXrdqOHb8w+H4T3//gwW5fdGSc68f2tfXF729vQ2/L0I3mZmZidnZ2bTLACChXC4X/f39rilK1/nB80/G8TNH4hWrfyYiInL5fD6fck0d6cCRvfHZ3Z+NIyffX/ccfT0HYv2q++PWt3ymiZUBNMf77nl9HD9ze0NzrFj0nvjM2x9sUkUANMMHd74xPrXtaw3Nkc/n49SpU02qCCBdg4ODMTAwUH0gEBEv/DtgYmIipqam0i4FgIR6enpieHhYKErX+fqh++Kpo4/GDZs+FBG2zwUAAAAAAAAyri/tAgAAaL2Do+OxZmQ47TIAAOhwuVwuhoaGYmhoKO1SoOluv//p+L9e95JYPGhbdbLHpqGgUxQAoCt86t4DMTo2kXYZAAAAbWvfs2MxPjGddhnQErbOBaEoAAAAAAAAkHFCUQAAAAAAACDThKIAAAAAAABApvWlXQAAANB5BgcH0y6BjPve0Yl48PHR+KXXXJp2KWRcb29v2iUAAAALQCgKAADUJJfLxcDAQNplkHGf/Mq+GDszFZuvuCg2XLIs7XIAAADocLbPBQAAoK3se3Ysxs5OxaoLBuMPv/pk2uUAAF3iJ5YNxvCgPiKArBKKAgB0gZu2rInli/vTLgMgkT/86pNx2YWL4qNvuzLGzk7FvmfH0i4JAOgCv7dtfSwetK06QFYJRQEAusDGyy6I/l7/9APa31yX6Ie3rYsLFg3EZRcu0i0KAABAw3wyBgAAQNuY6xK9YNEL16398LZ1ukUBAABomFAUAACAtlDYJTpHtygAAADNIBQFAOgCB0fH0y4BoKriLtE5ukUBgIVw+/1Px+mJmbTLAKBFhKIAAF3gU/ceiNGxibTLACirVJfoHN2iAMBC2PfsWIxPTKddBgAtIhQFAAAgdeW6ROfoFgUAAKARQlEAAABSValLdI5uUQAAABohFAWgZT7/4Ycjl8u1zdcb3vCGtF8SAKCEal2ic3SLAgAAUC+hKAAt8/Mf3xT5fL4tvp5++uk4ePBg2i8JAFAkSZfoHN2iAAAA1EsoCgAAQGqSdonO0S0KAABAPYSiAAAApGbszFT85ptelnj8BYsGYtlQf9z14KEWVgUAdKM1Fw3H8GBf2mUA0CJCUQCALvAb162NkWWDaZcBcJ5li/rjj//2u4nHP39mMsbOTsU7Xn9ZC6sCALrRB996RSwe7E27DABaRCgKANAFrrpkWdolAJR0y7+6PA4dOxPPn5lMNP7jOx+PZUP9scH7GgAAADUQigIAAJCaDZcsi2VD/fHxnY9XHfv8mck4dOxM3PKvLl+AygAAAMgSoSgAAACpStotqksUAACAeglFAQC6wP5nx9IuAaCsJN2iukQBgFb71FcOxOmJmbTLAKBFhKIAAF3gT+5/OkbHJtIuA6Csat2iukQBgFY7+KPxGJ+YTrsMAFpEKAoAAEDqKnWL6hIFAACgUUJRAAAA2kK5blFdogAAADRKKAoAAEBbKNUtqksUAACAZhCKAgAA0DaKu0V1iQIAANAMQlEAAADaRmG3qC5RAAAAmkUoCgAAQFuZ6xb90D3f1iUKACyYNRcNx/BgX9plANAiQlEAgC7wG9etjZFlg2mXAZDIhkuWxUBvT5w4M61LFABYMB986xWxeLA37TIAaBGhKABAF7hKlxXQYV67fkX05HK6RAEAAGgKoSgAAABtZ6C3N3L+HysAAABN4v9iAgAAAAAAAJkmFAUA6AL7nx1LuwQAAIC29qmvHIjTEzNplwFAiwhFAQC6wJ/c/3SMjk2kXQYAAEDbOvij8RifmE67DABaRCgKAAAAAAAAZJpQFICuMDQ0FJs3b067DAAAAAAAUtCXdgEAsBBWrVoVf/7nf552GQAAAEDKvv7U8Tg4On7e8dMTM3Hv3iMxPNh7zvHFg73xlo2rFqo8AFpEpygAAAAAAF3j/m//MA796PxQ9JqXLj8vEJ2ezcd/+cdnYmpmdqHKA6BFdIoC0DZyuVxEROTz+ZY9v9E1GlFu7TRrqkW99XfK+QEAANAdXn3FhfGdZ0/F2151SdWx//jE0bjm8hXR36u/CKDTeScHoK3lcrmyX/XMVep2u6p07rW8DknnKTVfuTXq/R4krQcAAABa5ZqXXhh7D51I1P359adPxDVrly9AVQC0mlAUgLZQHFgWdhcWdhjW0m1YKmibm28huhbLBX1Jj5c691J1VwsVC885yVfxc+fWKFyv8LF6VVub5vrgW66IkWWDaZcBAACQusWDvbFmZDj2PXOy4ripmdl49NCJuObyFQtUGQCtJBQFoK20IhhrZehWqbOxXOBX6/FykgSmzVBvOEt7WTMynHYJAAAAbePVV1wY/3TgWMUxX3/yePzUZcttnQuQEd7NAUhdYedhqS7EStveVuq4bAfFXapzxwofL3ws6VwLoZZO11LBabXvi21zAQAASEuSLXRtnQuQLUJRAFJVLvBMEroVHl+orslaFQahlQLQJKFgredV67VEq23fW+7cktab9H67fO8AAADIrmpb6No6FyB7hKIApCpJ8FbcYVkuVCynUvC3EJJcE7VUF2kz1q22VW+1saVe81bUSuvtPfR8xb+ABgAA6DaVttC1dS5A9nhHB6Dt1RpgFo9N0pFYLigtPl5PmFpp+99KdZaaZ6G3z40oHeQWH0tSV63b6dJcd+w+GCdOT6VdBgAAQNuotIWurXMBskcoCkDHKRWmlRpTy3xJjtcT1JW7Rmo919csFZom3Z63Hkk6Rktd+zXplrvVulUBAACglcptoWvrXIBsEooC0NaShHHF6g3Vyj2v3qCusPbCkLPSdrbtFApWC2+TPn9OO5wTAAAAFCq1ha6tcwGyybs6AG0tyZayc+MaWaNwrmaZqz1JJ2rStSttP5v0uUlfq2rXIS08Xu52LdsB2zoXAACAhVZqC11b5wJkk1AUgLZWrVuxWV2VrQpGGwltq20TXK7jtFHF11Bt1rzltFN3LAAAAN2leAtdW+cCZJdQFIC2Vm2r2Wao1p1Y75axlQLFwsfKBbLNPOdGw81K51RPxysAAAC0i8ItdG2dC5Bd3tkBSF0ruhHrnbNS12U9czV6TknmqBZKNvL6lgptGzmnheg8BQAAgFoUbqFr61yA7BKKAtBW0thGtVIXZrUOzaTXzSwMA0sFg/Vu31ut47RaCFn4nHLdsMXHys1fvH6t3bW6TFvrg2+5IkaWDaZdBgAAQNuZ20J376HnbZ0LkGF9aRcAQHerth1rs+ZcCOXCzmqBaPHYpPVXWq/wNaw2T7nHy81Raf7C9ZOeezO/95S3ZmQ47RIAAADa1quvuDDueOCgrXMBMsy7OwCpKtVpWa47s1pXZuHzKnV9tkqSdWs5hyRjqnW3NnK+1b4PtZ5vuWvDlnsuAAAALJRrXnphnJ6YsXUuQIbpFAWAGgjsAACAbnZ2ajb2/eB0HDp6Nu1SoOle9fKROHxqNr708GjapUBTDQ/0xpZ1y2OoX58c3U0oCgDQBfYeej42XLrUNlAAADTsfxw6GQ89cSLtMqA1Dp5OuwJoupGl/bFlnS5o8KkYAF3h4MGDsXbt2rTLgNTcsftgnDg9lXYZAAAAAJAKoSgAAAAAAACQaUJRAAAAAAAAINOEogAAAAAAAECmCUUBAAAAAACATBOKAgAAAAAAAJkmFAUAAAAAAAAyTSgKANAFtm9bHyPLBtMuAwAAAABSIRQFAOgCAlEAgP+fvbsPlqu87wT/u2+6b5a4AgkEwkYSsSNDHASJHLDXgzQ4E8bZrIU3HhNIxWLLrhgnsWHKFZydbISSeClPeRdRzozJ2LsomSDIOBtBnDjrNS4JJ8FgPEGsDciWQReDQEICXQv0cnUl9f7hvUyr6ZfTfbv76T79+VTdqr7nPOc5vz7dp7n0V8/zAADQy4SiAAAAAAAAQK4JRQEAAAAAAIBcE4oCAPSAh37wcsycPJW6DAAAAABIQigKANADtnzr+Zg6PJO6DAAAAABIQigKAAAAAAAA5JpQFAAAAAAAAMg1oSgAHenYsWOpSwAAAAAAICeEogB0lO3bt8fatWvj3nvvTV0KAAAAAAA5IRQFoCPMhqFr166N7du3py4HAAAAAIAcGUxdAAC9bfv27bFx40ZBKAAAAAAALSMUBSAJYSi014ZrVsbiBcOpywAAAACAJISiALSVMBTSEIgCAAAA0MuEogC0hTAUAAAAWufuj14cERHXf/GJxJUAQGcSigLQUo2GoTt37mxqgLp3796m9QUAAEB21cK62X2V9udV8fMuVu81qNRPve166doD0LuEogC0zKH9x2LjlxobHXr//ffHI4880tR6rr322qb2B93k6999KdZctCiGBvpTlwIAAK+7/otPZA72ukWtEZul++fy/IvPUa2f4utcWtfdH7047v7oxYJRAHJPKApAyyxYPBLbtm1raLToLbfcEuvXr29hddBb7v/nF2PVBWdYWxQAgLYqDuoEb+UD09TB8Oz5vT4A5J2hAgC03Jo1a2Lbtm2xbdu2WLNmTepyAAAAoKNc/8UnBJIA0GJGigLQNmvWrIk1a9Y0vM4oAAAA+VU6WrLcNK+VVJqKttwozFrT1tZa+zRrfc1YL7VZa4+24rzNuNalfVZq2+h5AaCYkaIAtN3syNGtW7fGqlWrUpcDAABAhygeMVk69W7x/kqhV+m+autolvZXKcCrdO5yQVzptLjlts0eW2vK3NLztkqlNU5rXZu5XOsstcz1vABQSigKQDLr1q2Lxx57TDgKAACQQ+VCvawjBhsZYVirXSPhYisCt9LrUe45Vlp7tBlmz1l87mb1nfVaVxuNW7qvnveCaYgBqMb0uQAkt27duli3bl3cd999sXHjxtixY0fqkgAAAOhAd3/04rqCwmojSkv7rUczgrfSYLRdYV691yzrtanVb72vXVZCUACyEooC0DGKw9GJiYnU5UCuzBswQQgAAGnUGziWU2lk5VwCsSxrU7bD7HnbGYzW0sxrU+9rl+I1AKA3CEUB6Djr1q1LXQLkzh98YGVMjA2lLgMAgB6UZfrTevua7a/R6V9TrUPZDetftqrGrK9dJ18bALqbIQMAAD1AIAoAQDtVWxOzkXC03NqbqcOzSuuBcrpmvHauNQDNIBQFAAAAAJIrDr0qjSJsZTBWev7i6WxLz1vPaMpygV6t51ruvClDwXLXZi59lNOMaw0A1fQVCoVC6iK60a59O+LO7XfGvlc/0XAfg/27YuWSB+LT7/t8EysDaI7fufvKOHj0C3PqY+HojfH56x9sUkUANMOntl4Vn7vmG6nLgJru+uZkfP17+2PLx1enLgWAIsdmTsWff2tvfPMHUxXbVBoVmHV76f5qbbK2KxeoZQn2qtVYLaSby3PNUmPWUbe1rn0lcwlg6wmys74ujb7GwE8snj8Ut33gwhgZMk6O3vLos1+LZ15+PD502e9GhDVFAQB6wte/+1KsuWhRDA34HyAAAFqrUjhV7/Z629TTrpVtq7Wfaz+NTkPbrPob0exzCz8BaJRvxQAAesD9//xiTB2eSV0GAAAAACQhFAUAAAAA6HCdsr4oAHQr0+cCAAAAAHQ408YCwNwYKQoAAAAAAADkmlAUAAAAAAAAyDWhKAAAAAAAAJBrQlEAgB4wb8CffQAAAAD0rsHUBQAA0Hp/8IGVMTE2lLoMAAAAAEjCkAEAgB4gEAUAAACglwlFAQAAAAAAgFwTigIAXbIcvwAAIABJREFUAAAAAAC5JhQFAOgB933nhZg5eSp1GQAAAACQhFAUAKAHPPDE/pg6PJO6DAAAAABIQigKAAAAAAAA5JpQFAAAAAAAAMg1oSgALXPvv/vn6Ovr65ifa665JvUlAQAAAAAgAaEoAC1z7Wcui0Kh0BE/u3fvjh07dqS+JAAAAAAAJCAUBQAAAAAAAHJNKAoA0APmDfTH0KA//QAAAADoTYOpCwAAoPX+6IMXxfjwQOoyAAAAACAJwwUAAHqAQBQAAACAXiYUBQAAAAAAAHJNKAoAAAAAAADkmjVFAQB6wH3feSF++dIlMTTg38QBADA3554xL95+7njqMgDIaGLMkjoQIRQFAOgJDzyxP979trNi8YLh1KUAANDFhgb64l+uXBj/cuXC1KUAANRFKAoAAAAAZNLfFzFQmImZmZnUpQCQUX9/fwyPjaUuA5IzfxoAAAAAAACQa0JRAAAAAAAAINeEogAAAAAAAECuCUUBAAAAAACAXBOKAgD0gHkD/TE06E8/AAAAAHrTYOoCAABovT/64EUxPjyQugwAAAAASEIoCgDQAwSiAAC00j/9cCq+9fShuOLCBRERSR9f/TNnxY9ePhpPvnikax7/m58/Ox56+sfx/MHprnn80X9xXvzloy/FoaMnuubxp37pLfG5r/0oIqIrHi8YHYwPrT47vvjNF7rm8fkLh+NdF54R/+U7L3XN44vOHYu3nDUa//f3Xu6ax9U+C9+8cCTectZI3Z/j0Av6CoVCIXUR3WjXvh1x5/Y7Y9+rn2i4j8H+XbFyyQPx6fd9vomVATTH79x9ZRw8+oU59bFw9Mb4/PUPNqmiuZmcnIy1a9fG7t27U5cCkNSntl4Vn7vmG6nLgJru+uZkfP17+2PLx1enLgWAIoVCIaanp2NmZua07S+/NhMHXjsei940LyIi6eMlZwzHkeMn49DRE13z+M1njsaBV4/H0ZmTXfN4xeLReO6V6Zg5eaprHv/0kvH4/t7DERFd8XhooD/efOZwPLP/aNc8Hh0aiEXz58Vzr3TP4wWjgzE2byD2/ni6ax5X+ywcnTcQY/NOXz6nv78/xsbGoq+vr8onPOTPo89+LZ55+fH40GW/GxFC0YYJRYG8E4oC5JNQlG4hFAXoTJVCUQA6l1CUXlUaivbXaA8AQA58+ZE9cXj6ZOoyAAAAACAJoSgAQA94cOeBODJ9InUZAAAAAJCEUBQAAAAAAADItcHUBQDQmeYNjsfC0Rvn1MeC0XOaVA0AAAAAADROKApAWf/bh75adf+XH9kTEREf/IWl7ShnzkZGRuLyyy9PXQYAAAAAAAkIRQHoCUuWLIl77rkndRkAAABdr7+/PwYGBlKXAU333CvH481nzktdBjRdX19f6hKgIwhFAegJxX/8FQqFN2wv3lbp2GptAAAAekFfX18MDQ3F0NBQ6lKg6TZsfSJ+/5qfjouXzk9dCjSdYBSEogA0aGigL+YN9rflXPX80VYaXJY7dq4hZ616yoWuWQleaZXx4YEYatM9CwBAvvlinbwq9BXi8NET3uMAOSUUBaAhv3zpkhgaaE/A0qqgcK7/k5MlgM0yKtVIVNrhjz94UdvuWQAAAADoNEJRABrSDeFKPaFnadt2BZT+9Snt0g33LAAAAAC0ilAUgNyaDTYrBZ6lIzQr/T6r1u/NqBUAAAAAgOYTigLQ0RoJHmut6dnX15cphKw3PK032CyurfixgBQAAADSmDl1KnUJALSIedQAaMijzxyMJ/ccavl5CoXC6z+l28u1qRWIVtqXJXzt6+tryujQ4hC1tObS+svVWRqmlv6Ua9/ofvLjy4/sicPTJ1OXAQAA0LH6IuK16ROpywCgRYSiADRkcv+ReOL5V1OXUVWl0LHaSMxaozSrhZbVgsVWhI2VRpfObi8NX2vVUuva0N0e3HkgjvifewAAAAB6lOlzAcitWuFkoVCoOjqy0lqkpb/XM31u8TnnOv1uub7LyRLICkMBAAAAgDwTigLQdbIGeLXWAG1EpXVAy52nUrta27Mqfj7V1iQVeAIAAAAAvU4oCkCuZQ0uy8kSomZdw7S47exo0Ur9VJLluZSOQq3Uh6AUAAAAAOgl1hQFoCtkHVVZbtRktXCzdL3RZmvGWqLVpvgtPketEamtWNcUAAAAAKAbCEUB6HjVpoat1C5Ln6VhY7NDw3J1V5rqtlw9tULaSqNUi0eklguEjRIFAAAAAHqN6XMBaMj48EDLz5F1itlq7SqFgbUCy3JhYvG+ekdfVqux9FzF09/WE4w20kZA2jsmxoZiaNC/hwMAAACgNwlFAWjI+1Ytafk5WhkIltuedVvW/fUGjgJKWumPP3hR6hIAAAAAIBmhKAA0QIAJAAAAANA9zKEGAAAAAAARcez4qdQlANAiQlEAAAAAAIi+OHb8ZOoiAGgRoSgADXn0mYPx6DMHU5eR2eTkZCxfvjx1GZDMn/3Dj+LwtP+5BwAAAKA3WVMUgIZM7j8SERGrVyxMXAmQxaPPHIz3XXJOjA8PpC4FAKAj7Dl4NP6P7c+mLgPoJIWIf9z1Svxg3+HUlQBNsnj+cNz4XgMl+AmhKAAAAAA9Z9fe12JooC/e/3Pnpi4F6BBb+16M5WePxqoLJlKXAjTJxr/eKRTldUJRAAAAAHrSxNi8uGjpgtRlAB3iwadejvMWjvpcAMgpa4oCAAAAAAAAuSYUBQAAAAAAAHJNKAoAAAAAAADkmjVFAWjI+PBA6hKAOkyMDcXQoH8PBwAAAEBvEooC0JD3rVqSugSgDn/8wYtSlwAAAAAAyQhFAShr36EfxaGjr8ypjwWjZ8Y5C97SpIoAAAAAWmdifCimDs+kLgOAFhGKAlDWbX/3P8VA/0/NqY+Tp34Ym37tgSZVRC85ePBg7Nu3L3UZJDI4OBjz589PXUZNo6OjsWDBgtRlAAAATTLY3xczJwupywCgRYSiAJR18tRMHDj8iTn1sXD0xiZVQ6956KGH4sSJEzEyMpK6FBJ4+eWX45xzzkldRk0HDhyID33oQ6nLAAAAACADoSgA0HH6+vriHe94R6xYsSJ1KSSwZcuWuOqqq1KXUdOWLVtSlwAAAABARv2pCwAAAAAAAABoJSNFAQAAAMitXXtfi9//8pMV929/av8btv3qO5fGB39haSvLAhJ66Acvxx1fe7ri/r/69p43bPvkL10Y73rbWa0sC5iDW+79XkzuP1J234c+/+03bFu8YDj+5MOXtLosOoxQFAAAAIDcOm/haEyMDcWfrL8khgZqT5r2hQd2x+IF89pQGZDKBYvHYunC0fjff/0dmdr/27/4blyweKzFVQFzsWzRePzrS86JNW9fXLPtk3sOxV99+4U2VEWnMX0uAAAAALk1PjwQyxaPxRPPv1qz7czJU7Hj2alYveLMNlQGpLJ04WhEROw5eLRm29k2s8cAnemKt54Z39r1Sqa2D+16Ja74Kf+t70VCUQA6yuTkZNxwww2xefPm1KUAAAA5kfWL0ieefzWWLR6L8eGBNlQFpHTFW8+Mh35Q+3PhoR+8Ele8VXgCne7i8+fH5P4jcXj6ZM22jz59MFZfuLANVdFphKIAdITZMHT58uUCUQAAoKlWrzgzdjw7FTMnT1Vt961dwg/oFe96W7Z/LPH4j34cqy44ow0VAXMxNNAfqy6YiEefqX5fP7nnUCw98ydT69N7hKIAJCUMBQAAWi3LFLqmzoXesnThaIwND8Suva9VbLP/0HRMHZmJty55UxsrAxqVZWYIU+f2NqEoAEkIQwEAgHaq9UWpqXOh9/z88on4zu6pivv/6Qcvx7vfdlYbKwLmIssUuqbO7W2DqQsAoLdMTk7Gxo0bBaE03ZYtWyIi4rrrrsu0Pev+uZy7083WXa9ue54AABE/mUL3noeej5mTp2Jo4I3jBEydC73n3W87KzZu3Rm/dsX5Zff/v88dil9953ltrgpoVPEUumvevvgN+02di1AUgLYQhtIKjQahWfqsplq/9RzfSCiZ9dh6nntpn7V+BwDoRsVT6JauDzg7de5vvOctiaoDUli8YDgmxoZi197X3jBF7tSRmdjzytG4aOmCRNUBjbjirWfG3z++t2woaupchKIAtFSjYejOnTtj+/btTatj7969TeuLznHdddfFli1bTgvrmjVqs9zxWQPPWmFttWMqnb/S/qzbK/Vbrm2t3wEAutWVKxfFgzsPvCEUNXUu9K7Zz4XSUNQUm9CdLj5/fnzhgWfi8PTJN/x3/dGnD8avvnNposroBEJRAFrm0P5jsXbt2picnKz72Pvvvz8eeeSRptZz9dVXN7U/OkOlUY2laoWOKRXX3qwAMksg28ophQEAOtHqCxfGl7ZPvmEKXVPnQu9afeHC+Ktv74mPrFl22vbv7D4Y//qSJYmqAhpVaQpdU+cSIRQFoIUWLB6J3bt3x+bNm2Pjxo11haO33HJLrF+/voXV0e0qhYfVwr9q4WO9oyPL7W/miMpGzl+8PUug2eg5hKUAQLcaGuiPSy6YiEefPhjvettZEWHqXOh1E2NDsfTM0Xhyz6HXp8o9PH0yJvcfiYvPn5+4OqAR5abQNXUuEUJRANpg/fr1sX79+obCUagkyzSx1UK/etfRLA0Ci38v12Z2Wt+sI1mr9V98fDMZKQoA9KLVyyfi0d1Tr4eips4FrvipM+OhXa+8Hoo++swrseqCidNGlAPdo9wUuqbOJSLCpzoAbbN+/frYvXt33HXXXbFs2bLaB0AN5cK7WmFpq2rolH4aPXfxT63tAADdbPWFC+PxZ6di5uSpiDB1LhDxrredFY8+ffD1z4XvPDMVP79iInFVQKOKp9CNMHUu/42RogC03fr16+Paa6+NO++8Mz772c/G3r17U5dEF6o2mrF0lGjxiM1a/WX9vVx/Wc5Tzmy9pTXPRSPHZ12PFQCgmxVPobv6woWmzgVifHggli0eiyeefzUuPn9+PLnnUHzy6gtTlwXMQfEUuqbOZZZQFIAkRkZG4qabboqPfexjwlEaUmv62tIRo1mmhC0OU7NMe1tpXdHrrruubNBZT2BaqZZ6g9d6Rs4KPwGAXjE7he7Y8KCpc4GI+EmA8q1dr8SR6RNxialzoesVT6Fr6lxmCUUBSEo4SqMqBZKz6h0Z2unrZ9YaGVvarlqbSowUBQB6xeoLF8aXtk9GRJg6F4iIiNUrzox7Hno+Dk+fiHf5XICuNzuF7p//w49MncvrhKIAdITScHTJkiWpS6LDVRrJWS7sbGTt0WrT55b2WSmwrLav2rlKj88aiM6V8BMA6BXFU+h+ZM2y1OUAHWB8eCAuOn9BPPr0wbjxvStSlwM0wRVvPTNu+5vv+289rxOKAtBRZsNRyCJL4DhXlUZhtuKcpWuhVqqjWDODTCNFAeh1R4+fitF5pkvsFVeuXBQRYercHjJzshBDA30tP8+xmVMxMuSzpBv5XOhupwqF6O9r/j1+/OSpmGc65a508fnzY9nisVh94cLUpdCgZv99LhQFALre7Dqb5ULS4kCv3vU4m1FXlnNnWee00vGl22oFmPWukQoAvaQQhfjM3z0bT714OHUptNGvf+nJ1CXQJn/xkYvacp6RoX7vqy7n9etOn7jq/Hjn8gVN7/fUqYj/9E8vxDd/MNX0vmmH/vjtLbtSF0ED3n7ueNz8i+c3tU//vAEA6FrXXXddxWl0G9HMkafFfdWaqrfS8bWmBm622VpLf9rphRdeiPPOO6+t5wQAAAAg/4wUBQC6Wrm1P6utN1o6qrTe/us5pnQN02ojPsupdHyW+iq1r3Zc1lGmpbU1ywsvvBA//OEP4z3veU/T+wYAAACgtwlFAYCuVCmgKw0CqwWTxeFlpVGilabiraemSuevptZUuZXqbXVw2Sqzgei73/3uGBiwfg8AAAAAzSUUBQC6UiPrc5bur/S4Uj+NnjPL+evtqxm1dAqBKAAAAACtZk1RAACSEYgCAAAA0A5CUQAAkhCIAgAAANAuQlEAANpOIAoAAABAOwlFAQBoK4EoAAAAAO0mFAUAoG0EogAAAACkIBQFAKAtBKIAAAAApCIUBQCg5QSiAAAAAKQkFAUAoKUEogAAAACkJhQFAKBlBKIAAAAAdILB1AUAAJTz6quvxr59+1KXwRwcPnw4nn/+eYEoAAAAAMkJRQGAjjM0NBQvvPBCHDhwIHUpufHSoelYNH9e9Pf1te2c4+PjAlEAAAAAOoJQFADoOPPnz4+zzz47VqxYkbqU3PjtP3s8Nly1MhYvGE5dCgAAAAC0nTVFAQAAAAAAgFwTigIAAAAAAAC5JhQFAAAAAAAAck0oCgAAAAAAAOSaUBQAAAAAAADINaEoAEAPWLZoLMaGB1OXAQA96+6PXhx3f/Ti1GXQAK8dvS7VPeDeg9Zxf9GrfDMGANADPvXLb01dAgDkTrUvE6//4hN1f9lY3P76Lz7RlLoq9VNa22y7Stu7RaVrXu/zyPLa1WrTbdeO9umG+28un1/F3Hv0iizv3Ubfm+4vaB6hKAAAAECdZr80LP5ysFqg0c7RGFkC2eI2xXVW2t4NSuueyzXP8tpVu1azI3C67RrSHlnv0ZTq+fxy70Ht92Wj3F/QXKbPBQAAAKhDpS8L5/ol4fVffOL1H+pTKeBNpRlfXkM3cO9BbY2+L91f0HxGigIAAACQSwJmSMO9Bz/RitkX3F/QOKEoAEAP+Nzf7Yob37sixocHUpcCAF2t1pebzVovrFo/5UZo1NO+mWuaVZqKr9xokqzTcWaZdnCuXwg3a322Zp+z3GuVdf3JSn1WatvoeWm+aq9lO98T5do1W6fee+Xauf9opXreQ3PtM/X9lereqvfc9AbT5wIA9IDJA0fiyPSJ1GUAABVknTa3OJQtPibrl4hz/aK12nnL9V1uW6W+Gj1v8Xlm1zur57m0QqU14IqfR6VrWO6L5Epf8jbrGmY9L+1X7v4tt20u74lm1Nft9165utx/NGr2fqh0T2R9D+Xl/kp1b9VzbnqHUBQAAACgCzT6RV6t44q/vC33pWutNVSbsbZYrfA0y3lLvxTN+lya8cVouWvYrC9ci4Owan024xo2cl5ar/T1yvoey/qeaEYwmsd7r7gv9x/1yBLqlTumWl8R+bq/Ut1b9ZybfDJ9LgAAAEAXyzqSIuvxzQg5s7j7oxc3/Qvc4n5mv8Rtxxee9YZTWa9xrX5bfQ3pPq16T2SRp3svS9/uP+aqnvdQnu6vVPdWs/uiOwlFAYCu1dfXFxERhUIh07Zq26v1U65PAIBu0q4vULOoNOKl2kjWRs/Tzi+Pa8myrllW7bqGdI963xOtriWv997s8bP9uv+opdz7Yi73a57vL/cW7SAUBQByrTT4rLa9r6/vDcFnpeMBAMrptLWq5vrlfyuVrvFVazq8ajrtupdqVX3NvIakUXyPVrtfi4OQWv3NatWUssV69d4r7dP9RyNqvYd69f5yb9FK1hQFAHpCoVAoO9Kz0vbS/UaJAgARzV1Hs5mqhSWdVnO5Wuv9YjNLOJRnriHlpq2c63uCbNx/NKL4NXe/lufeoh2EogBArs2GmdVGjPbCaNCLly6IsWGThABAM5V+6dbqER2Vws161g1t5IvCuZy32vmyjnir57zFbcu1K9dnqi9PS2topI5WXEM6Vz2jpmv10ex7oNfuvdJ+ynH/MavSa571vddr95d7i1bqKxj20JBd+3bEndvvjH2vfqLhPgb7d8XKJQ/Ep9/3+SZWBtAcv3P3lXHw6Bfm1MfC0Rvj89c/2KSK6CUPP/xwnH322bFixYqq7bKuKVpue611Qq0jSi1btmyJ6667LnUZdfvU1qvic9d8I3UZUNNd35yMr39vf2z5+OrUpdBDjhw/Gbd//fl46sXDmdqX+9KudMq3arK0rRX8ZekryxS6lb5grFVj1vqy1tLI8612znrXIcsaHpd7HrW+hG3GGoZZ+mrGe6ZaX93sLz5yUdvO9etferLivqzvhWqvZSveE8VtG/3MqHbOZp23FfderamLs/bn/kvrE1edH+9cvqDp/R6bORV//q298c0fTFVsk/V9VqvtXN4bnXp/VTtf1r7a9fcBneXt547Hzb94fozNG2i4j0ef/Vo88/Lj8aHLfjcihKINE4oCeScUJaV6Q9FyKo0QrTVyNGtoCkJRaC2hKCnUG4qSH0aX9IZOCUUb1cr3aap7wL1HM6UMRTuR+4tu14pQ1BxqAPSsZoRe7QjOGp3atRfCvEKhcNr1Kf29XPusbQEAADqB9fEAoDmsKQoAGTS67uTscZV+6lEoFN4Q6lX7vZluuOGGmJycbEnfczX7vGefe6XrUu7aFO9r5/UEAKBzdMIabJBVK0eJlj5uNfcetI77C8ozUhSA3KsVPtaaRnX28WyQWc/0qnOdwrVanbV+b6bNmzfH5s2bY/369bFhw4ZYtmxZy85Fa9z2N9+PG9+7IibGhlKXAgDQUUwrSKdr9Xs01T3g3oPWcX9BeUaKApB7lUYCNtqu1FxGgWY5Z7nRjJVGQjZSfz02b94cy5cv7+iRo5S35+CxmDlxKnUZAAAAAJCEUBSAnlJudGetUZvF7cqNEq0WRlYKSOsJTmuFrs2YmrdewlEAAAAAoJsIRQHoCcVBYaW1JUvbVeurUj+t0EkjRUtt3rw53v72t8fNN98ce/fubcs5AQAAAADqJRQFINdKw9As0+cWH1fup1qbdjyXWiNF2+3YsWOxadOmWL58uXAUAAAAAOhIg6kLACC/nvrmvrh11611HbNy5cpYsmRJ02o4evRojIyMRETl6XFLt1cKTssdn3Xq3UoaOa6e+tppNhy9884742Mf+1jccsstTX0tAQAAAAAaJRQFoGWOHzlR9zH3339/U0ca3nPPPW8I5joxVKwnXK2nzrVr18b27dsbrqsRxeHobbfdFjfddFNbzw8AAAAAUEooCkDLXHL10rj1+vpGirZDM8PPevoqDmMrHZdlLdB6Qt1t27ZlrK66eq/ZsmXLYsOGDbF+/fqmnL/Z2r0ubCe4eOmCGBv2px8AAAAAvck3YwD0nGaOFM06wrOZ4VvqaXKr6fQwtJfd+N7lqUsAAAAAgGSEogD0nBShYjPP2YnT/wpDAQAAAIBOJhQFoOfMNVQsbpf1mNJz1jqu2vSunTRSVBgKAAAAAHQDoSgAPaPWFLb1THGbci3KThgpumrVqvjkJz+ZPAwtDo9Lg+Ry16Pa61bavpfWGwUAAACAvOtPXQAAtFJfX9+cfsqpNHqz+JhyI0PL9Vsc4JXbX2tb1mOaZdWqVbF169Z47LHHkgeixUqfa6XnXs/2ThqR2wy3/c33Y+rITOoyAAAAACAJI0UByLVmjvar1le5kYrVji0XjHayVatWxYYNG2LdunWpSymr0jUs3p4l5Kw2yrTb7Tl4LGZOnEpdBgAAAAAkIRQFgCbJEobW2t6pHnvssdQltEUew1AAAAAAQCgKAPC6bgurAQAAAIBshKIAQG7VO/KztL2QFAAAAADyoT91AQAAzVbvtMXCTwAAAADINyNFAYCuVS3MrHefYBQAAAAA8stIUQCAHrB6xcIYG/bv4QAAAADoTb4ZAwDoAR9+z1tSlwAAAAAAyRgpCgAAAAAAAOSakaIAAAAAEdEXER95z7lxbOZU6lKAFjhVKER/X19bzvOZa1a0/DzA6RbPH2pJv/19Ef/jZYvjly4+syX9A+WNDPVHs/+rLRQFAAAAiJ988TLYdypODbc+NAHarx2B6Ox5lrzJ5wi029Bga+67oYG+OGOkL9405L6Gdurv74vBweZOeCsUBaBlvvYfnoq1X1qbuozXXX755XHbbbelLgOS+P0vPxmf+uW3xsRYa/7lLADkxczMTJw8eTJ1GUALDA8Pt+1cx48fb9u5gJ8YGBiI/v7WrBh44sSJmJmZaUnfQHkDAwMxONjcGFMoCkDLvPOaC+IjqzekLiMiIvbu3Ru/93u/JxSlZ00dmYmZE6YCBAAAAKA3CUUBaJmF543FmjVrUpcRERGTk5OpSwAAAAAAIJHWjCUHAOgxfX190TfHNYqa0QcAAAAA8EZCUQAAAAAAACDXTJ8LANAEhUKhI/oAAAAAAN5IKAoAdK3ZqWYLhcJp086WhoulU9IW76/UR+m2rOco13etmmb31eqjWvtq5wIA5ubFH0/HoaMnYskZw3Hk+Mmkj9985mgcePV4HJ052TWPVywejedemY6Zk6e65vFPLxmP7+89HBHRFY+HBvrjzWcOxzP7j3bN49GhgVg0f14890rzH+/98XSsWDzaqo+Ehj2z/2jHvMdLHz+z/2hEpH8vZ308W3MnvJdTv99b9XjB6GCMzRuIvT+e7sjH554x3JL7tB4vvzYTB147HoveNC8iIunjTvgbxd80nfm4Ez6zsz5uB9PnAgBdrzQ4LP69XKjYyLZq58hSUz3H1mpXq5Zyx61esTDGhv17OABoxGPPvhpfefzleO6V6eSPD7x6PB56+sdd9fjI8VPxwFMHu+pxRMRXHn+5ax4/8NTBOHL8VFc9fujpH8eBV4+35PEDTx1syWfBXKV+X1d73Cnv5ayPU79/O+n93qrHjz37ajz3ynTHPu4EO/cejq88/nLs3Hs4+eNO+BvF3zSd+Tgi/Wd21sft0FcwlKAhu/btiDu33xn7Xv1Ew30M9u+KlUseiE+/7/NNrAygOX7n7ivj4NEvzKmPhaM3xuevf7BJFc3N5ORkrF27Nnbv3p26FDJ4+OGH4+yzz44VK1ZUbVdtZGWl0Ze1fm/VMbXqbuQ8WeqgdbZs2RLXXXdd6jLq9qmtV8XnrvlG6jKgpru+ORlf/97+2PLx1alLoYcUCoU4evRonDx5MnUpQAvMnz+/bed69dXOCG2gl4yOjsbgYPP/MXChUIjp6emYmZlpet9AZQMDAzE6Opp5cEE5jz77tXjm5cfjQ5f9bkQYKQoA9Ii+vr45/RFVr9KpKqxtAAAgAElEQVRgM+s+AAAAAKD5hKIAQE8oFAqn/bTrnBGCUQAAAABIzcJSAEDXyxIslrZpdTDajDVFG21fzszJUzE04N/DAQAAANCbfDMGAHS90oCz+PdOWFuzWg2N7GvkOf3+l5+MqSPWPwEAAACgNxkpCgDkQjODx2oha6PHZNmXpd9G2x+ePhkzJ05V7AsAAAAA8sxIUQAAAAAAACDXjBQFAAAA+P+NjIykLoE22XPwaDy157V4788sTl0KOTQ+Pp66BBrgc6G79fX1tazf4eHhmDdvXkv6p7X+/B+fi9/4796cugw6hFAUAOhanbBeKACQH319fS37QpXO8/RLR+Lpl47Ev+o3kRrN1+991ZV8LlCJvxG6198/vi/W/4sLUpdBh/DpDgAAAAAAAOSaUBQAAAAAAADINaEoAEAPuHLlohgbtnICAAAAAL3JN2MAAD3gg7+wNHUJAAAAAJCMUBQAyJW+vr6IiCgUCokroRPMvh8ivCcAAAAAepnpcwHoCUuWLIl77rkndRnQFn19faeFgan6SK1c/Xl4XgAAAADUTygKQE8YGRmJyy+/PHUZdJheCshmTp5KXUIyhULBKFEAAACAHicUBSCpSqFUO0a6le6f/b3ST5Z+6q27l0I52qdcCPj7X34ypo7MzKmPPMjr8wIAAACgOmuKAtCRCoXC64FhaYBRKURsVtCR9XzNluU8s7U1UlNeg6Baa0aWu1az76/SNtWub63rV9xHtZpK+y7eX6mP0m1Zz1G8/d//2jvi32eoqfQalKuvXP1ZayuV5Xo0cr5Kr2/W55WldgAAAAC6h5GiAHSd2ZFe1UZ8lQtEOl3xc8nyHEuPqffYPCh9bbO+1o28Jxrtu9Z7sZFt9T7vWiOds6jUrlYtjZ67Feer1l/p/ZL3ewcAAACg1xgpCkBHyRIQVRrt1coaarWtZ3RpM2uuNrKwl1Qb9VdtFGWl16/W61ltJGQ9IxCzjFCsNIq1kVHDL/34WCxeMFzznNVkHclZuj/rNWvW+Vr9OQEAAABAdxGKAtB21YLPZoQX5UKj4ml4KwVccz13rTCuUrtK25pVB60dGdqIdr9GswHh2WeMlA0kK01VDQAAAAB5YfpcANqu3NSuxb/PBjSzSn+vplzAWW6EXaX9tX7Knate1Z5/rfUQK/VXqX8hV+XXfS7HzPX6pniNfmvzjojItk5nK3Tqe7Lc506n1QgAAADA3BkpCkAyWUeMZh3JlmUd0Vp9lJuGNsvUtI1MY9usAMoIv2zXMsv6lfVMg9zMWlr9+jVjTdFG29fbZzNeg0bO3ev3EAAAAEDeCUUB6AjVQpHZbeWC0WaES80Ivsqdt57aGg02i69LpfPmWWkIXW+oXWnfXNZoLVdTM/ptlqzrd5bbV2tNz0ZqaeS1aaZy91ArzgMAAABAWkJRAJLIEoSUm/a2uF21/rL0kbWuan1XC7iyjmot3jY7vWhpSFNPQFPpGuZ1RGm56YNrtcmyb65hX7P21Xp+jRyTZV8zrmOWa9jOa1VuW7nPhjzfL9BtCoWILz+yJ3UZQE5NHjgSBw4d9zkDvO7ZA0difNhX5gB55RMegI7QytFftQLUaqM8Gw16OonpQQHoRuefORqFU4X4q28LK4DWeeuSN6UuAeggFywai9UrFqYuA4AWEYoC0Ha1RlrWM1Ky1gjRckpHj9a73uJcw8Vyz7/cCLcsz6XWiFuBKFRn+lzoXEsXjsZF5y+IP7hmZepSAAAAyAGhKABt16xQsbi/0qCx3BqbWaYJbWYIWqmvVoQttdZmpPU6/Tofnj4Z48MDqcvoSJ3+2gEAAAAwd/2pCwCAcqqtH1ptX2m7esKOSuFptZGk1cyev/in3lpqnb9av6UjYult/8uXn4ypIzOpywAAAACAJISiAHSkWqFgrTCwNBCsFUhWm8a2Ug2tUlxLI+cvN22uYJTjJ0/FzIlTqcsAAAAAgCRMnwtAxykX6PX19WUawVkp/Muybmi1kLVd63OWO0fx+bOeu9LxpfsAAAAAAHqBUBSAjlEcXGYJ9UrXEm3kXI2EjK1Q6bkXb8sajFY6HgAAAACgVwlFAUiqnvVB69lez3nn0u9cA8hG2wo+AQAAAACys6YoAAAAAAAAkGtCUQAAAAAAACDXhKIA9ISpqam44447UpcBybz34sUxMT6UugwAAAAASEIoCkBPmJqaik2bNqUuA5JZ9/PnxdCAP/0AAAAA6E2DqQsAAACAcl46NB1ffmRP6jIAAADIAaEoANCRnn/++Th8+HDqMgBI5IJF43HlykWpywAAALrYh9/zltQl0EGEogBAx1m+fHm89NJLqcvIlZmThRga6EtdRq5cdtllqUuAXBsfHogP/sLS1GUAAACQE0JRAKDjnHPOOXHOOeekLiNX/u1ffDf+4AMrY2JsKHUpAAAAANB2/akLAACg9Y6fPBUzJ06lLgMAAAAAkhCKAgAAAAAAALkmFAUAAAAAAAByTSgKAAAAAAAA5JpQFAAAAAAAAMg1oSgAAAAAAACQa0JRAIAe8P7Lzo2J8aHUZQAAAABAEoOpCwAAoPV+8R1npy4BAAAAAJIxUhQAAAAAAADINaEoAAAAAAAAkGtCUQCAHjB1ZCZ1CQAAAACQjFAUAKAH/OFf74z9h6ZTlwEAAAAASQhFAegoU1NTceutt8Z9992XuhTIleMnT6UuAQAAAACSEYoC0BFmw9Dly5fHxo0bY2pqKnVJAAAAAADkxGDqAgDobVNTU7Fp06a44447BKEAAAAAALSEUBSAJIShAAAAAAC0i1AUgLYShgIAAAAA0G5CUQDaQhgKAAAAAEAqQlEAWkoYCp3h/ZedGxPjQ6nLAAAAAIAkhKIAtMyh/cfi0ksvjcnJybqPveGGG+KGG25oaj1r1qxpan/QTX7xHWenLgEAAAAAkulPXQAA+bVg8Ug89thjsWHDhpiYmKjr2LvuuisKhUJTf7Zt29aiZwoAAAAAQCcTigLQUhMTE3HrrbfG7t27GwpHAQAAAABgroSiALSFcBTSmjoyk7oEAAAAAEhGKApAWxWHozfddFOMjIykLgl6wh/+9c7Yf2g6dRkAAAAAkIRQFIAkJiYm4vbbbxeOQpscP3kqdQkAAAAAkMxg6gIA6G1LliyJ22+/PW655Zb47Gc/G3feeWccO3YsdVkAufb0gcdTlwAAAADQUvtfe+6034WiAHSE0nDUyFGA1viZ894d/8/OP09dBgAAAEDLrVq65vXHQlEAOspsOApAa6z/hT9MXQIAAABA21lTFAAAAAAAAMg1oWiH2r59e+oSAAAAAAAAIBeEoh3m3nvvjeXLl8f999+fuhQAIEeuu+L8mBgfSl0GAAAAACRhTdEOcd9998XGjRtj5cqVsW3btli2bFnqkgCAHHnX285KXQIAAAAAJCMUTewH//VHcem/uzSWLVsWd911V6xatSp1SQAAAAAAAJArQtFE9n3/0fjeVz4XC950KP7yrvuFoQAAAAAAANAiQtE22/f9R+O7X/kPERGx6v3Xxpor9wpEoYvt3bs3du7cWXbfxMTEG+7vycnJmJyczNx++/btsX379rLtly1bFuvXrz9t23333Rc7duyo2P9NN9102rbNmzdXrOfxp/fEW64suwvoQvsPTcfiBcOpywAAAACAJISibXLwuZ3x3a/8xzh+5FC841d+K8756dUx2L8rIvamLo0OVCkEi4hYs2bNab9PTU1VDMEiIi6//PIYGRl5/ffJycnYvHlz2bYjIyNx0003ndZ+x44dcd9991Xs/6abboqJiYnTaq9Wf2n7e++9N/70T/+0Yj333HPPae03b94cf/Znf1ax/61bt57W/uabb45NmzaVbTsxMRG7d+/O3H7JkiWxe/fu067PHXfcEQ8//HDF+rdu3Xpa+82bN8eDDz5Ytv3sNNrFKgWWlfbt3Vv5M6X4eVbbNmv+4pGK+4Dus3HrzthwzUrBKAAAAAA9SSjaYrNh6GsH9sQ7fuXj8eZLr0pSx44dO2JqaqrsvlWrVr0hGHn44Yfj2LFjZduvXLkylixZctq2TZs2Vex/3bp1p41+O3bsWGzatKli/2vWrDkt+JuamqoYUpVrv3Pnzrjxxhsrtv/kJz8Z69ate/33HTt2xM0331yx/YYNG07rf8eOHXHppZdWbL9t27bT2m/fvj3Wrl1bV/uNGzdWbB8Rb2h/xx13VGz7hS98IVauXPn679VCtmPHjsWxY8dOC/GqhWwjIyOntY2oHrJNTEy8Yf+aNWve8H4q7r+0/bp162LZsmWZ+7/99tvj9ttvr1hTqXrb33bbbZnbRkTceuutdbUvHQlay8c+9rG62q9bt+60+6HY79y9LQ4eras7AAAAAADoSELRFvrW//k/x+6HvxLzz7kgRs9YFN//xn+O73/jP8eiFZfEqg/8txDu2LFjsXz58orh00033XRaSDM1NRXLly+vGEKWa18t9Pvwhz98WvAyNTUVGzdurBha/uZv/mZce+21p7WvVMvs/mKzwVslpaHWbPBW6ZjSgGzZsmWxYcOGiv2XTk+6atWqqu1LR2auWrUqCoVCxfbljq+3fek5q6kWajWj/6uvvjquvvrqzO1XrVpV15TQS5YsqRiKljMxMVFX/QAAAAAAAELRFvrZ9/92RF9fvPjEP8aiFZfEW37uX8Xg8FgsWLL8tHYjIyPx4osvZu53YmIiDh48WFf7bdu21dX+7//+7+tqX8/ot3rbj4yMxKc//em62tcbmgnZAAAAAAAA8qs/dQF5Nn7WeXHFDZ+J//4P/zbGzzovHt3ymdj3/W+nLgsAAAAAAAB6ilC0DeaNzY+f/R9+K973B/9XRER87bbr4r/+5Wfj6I+zj/YEAAAAAAAAGiMUbaPZcPRX/ugrMX7WufHV//WW+Nv/9A8V1xIFAAAAAAAA5k4omsDA0HCsfO9vxLo//pNYeM6CuPTSS+OGG26IycnJ1KUBADl13RXnx8T4UOoyAAAAACAJoWhCA0Pz4t3vvyRefPHFuPLKK2Pt2rXCUQCgJd71trNiaMCffgAAAAD0Jt+MdYj169fH7t27Xw9Hb7zxxjh27FjqsgAAAAAAAKDrCUU7THE4CgAAAAAAAMydULRDXXvttTEyMpK6DAAgJ/Yfmk5dAgAAAAAkIxQFAOgBG7fuFIwCAAAA0LOEogAAAAAAAECuDaYuAIDONTL4t6lLAAAAAACAOROKAlDWB37ut+Po8dcq7n9yz6sREXHR0vkV24zO++2m1wUAAAAAAPUSigJQ1tqVH6y6//DRPRER8b6fXdqOcgAAAAAAoGHWFAUAAAAAAAByTSgKAAAAAAAA5JrpcwFoyOoVC2N8eCB1GUBGH1mzLCbGh1KXAQAAAABJCEUBaMiyxWOpSwDqsOqCM1KXAAAAAADJmD4XAAAAAAAAyDWhKAAAAAAAAJBrQlEAGrL/0HQcnj6Zugwgo8n9R1KXAAAAAADJCEUBaMj2pw7EV3fsTV0GkNHnvror9h+aTl0GAAAAACQhFAUAAAAAAAByTSgKAAAAAAAA5JpQFAAAAAAAAMg1oSgAAAAAAACQa0JRAAAAAAAAINeEogAAAAAAAECuDaYuAIDutHrFwhgfHkhdBpDRR9Ysi4nxodRlAAAAAEASQlEAGrJs8VjqEoA6rLrgjNQlAAAAAEAyps8FAAAAAAAAck0oCgAAAAAAAOSaUBSAhuw/NB2Hp0+mLgPIaHL/kdQlAAAAAEAyQtGEjh85HBv/zRejr6+vY342bdqU+rIAXWL7Uwfiqzv2pi4DyOhzX90V+w9Npy4DAAAAAJIQiiY0b2w8NvyXj0ahUOiIn7vuuisef/zx1JcFAAAAAAAAmkooCgAAAAAAAOSaUBQAAAAAAADINaEoAAAAAAAAkGtCUQAAAAAAACDXhKIAAAAAAABArg2mLgCA7rTm7YtSlwDU4ePvXR6LFwynLgMAAAAAkhCKAtAQ4Qp0l4uWLkhdAgAAAAAkY/pcAAAAAAAAINeEogAAAAAAAECuCUUBaMj+Q9Ox/9B06jKAjJ7ccyh1CQAAAACQjFAUgIZsf+pAbH/qQOoygIz+4wO7/UMGAAAAAHqWUBQAAAAAAADINaEoAAAAAAAAkGtCUQAAAAAAACDXhKIAAAAAAABArglFAQAAAAAAgFwTigIAAAAAAAC5Npi6AAC605q3L0pdAlCHj793eSxeMJy6DAAAAABIQigKQEOEK9BdLlq6IHUJAAAAAJCM6XMBAAAAAACAXBOKAgAAAAAAALkmFAUAAAAAAAByTSgKAAAAAAAA5JpQFAAAAAAAAMg1oSgAAAAAAACQa0JRAAAAAAAAINeEogAAAAAAAECuCUUBAAAAAACAXBOKAgAAAAAAALkmFAUAAAAAAAByTSgKAAAAAAAA5JpQFAAAAAAAAMi1wdQFdKsFo2fGyVM/jIWjN86pn8Xzf6lJFQEAAAAAAADlCEUbdM6Ct8SmX3ugapsn9xyKCxaNx/jwQJuqAgAAAAAAAEqZPreF/urbL8SzBw6nLgMAAAAAAAB6mlAUAAAAAAAAyDWhKAAAAAAAAJBrQlEAAAAAAAAg14SiAAAAAPD/tXcHv3Gndx3Hn4ltOdnQYEO8G8IhCWqlRZWoK1UinCBqJVTEP7BnTr2we+xts8cVl0057KlnDlQcOEAqUslcWqmVqqBVzareJgTVwTRpbYzt1DtMHg6LV6NhZvyb8Tz7jL+/10uKFNszv/l4kttbz28AAAhNFAUAAAAAAABCE0UBAAAAAACA0BZrD4jsL/7kRnr1ynLtGQAAAAAAANBqomhBv7t6qfYEAAAAAAAAaD23zwUAAAAAAABCE0UBAAAAAACA0ETRgh4++a90eNyrPQMAAAAAAABaTRQt6O9//B/pyfPD2jMAAAAAAACg1URRAAAAAAAAIDRRFAAAAAAAAAhNFAUAAAAAAABCE0UBAAAAAACA0ERRAAAAAAAAIDRRFAAAAAAAAAhtsfaAyL7x1Vtp7cpy7RkAAAAAAADQak6KFiSIAgAAAAAAQH2iKAAAAAAAABCaKAoAAAAAAACEJooW9KNHu+nwuFd7BgAAAAAAALSaKFrQP/7Lf6Ynzw9rzwAAAAAAAIBWE0UBAAAAAACA0ERRAAAAAAAAIDRRFAAAAAAAAAhNFAUAAAAAAABCE0UBAAAAAACA0ERRAAAAAAAAILTF2gMi+8ZXb6W1K8u1ZwAAAAAAAECrOSlakCAKAAAAAAAA9YmiAAAAAAAAQGiiKAAAAAAAABCaKFrQ93/6y7R31K09AwAAAAAAAFpNFC3owU+epae7L2rPAAAAAAAAgFYTRQEAAAAAAIDQRFEAAAAAAAAgNFEUAAAAAAAACE0UBQAAAAAAAEJbrD2A+bG+vp5WV1drzwAAAAAAAICZEkULWlro1J4wkfX19bS+vl57BgAAAAAAAMxUJ+eca4+Iau+om1ZeWRr6s07nk2A6L2//LPbU+p3m7b0EAAAAAABgvoiilfSHvJO/j3Pyz9TksaOe23TPtI+tGSfPsn+S9x8AAAAAAIDzx+1z50B/GB0VGsc9p/97TZ47aNKYefLanU7nXMbCwf3zFHcBAAAAAACYPVH0nJr0pGmT6wz7etLrDP79xCwCY5Pfc9xjRE4AAAAAAIB2ulB7QGTf/+kv095R99OvT04nDgbEs0TNfv3XnyQg9sfCpreUHXbCcti1Rj1uGv3Xm+ZPk/21T4nO8v8DAAAAAAAAnxBFC3rwk2fp6e6LT78eFugGvzfsxOWoQDcq9DUJkeOuPennl9YIiafFQ3ERAAAAAACAE26fW8EsT4ZOEyJPu9XtqNcYdVvcebwt7bDPPT3ttr6TBOlS5vG9BAAAAAAAOO9E0cqmDZv90a//Wk2fO/icYZ8pOni9UQHxs3ZasBz8HU7e43H7h/2ug1F13GNHvfawxwy7xqDT/j0m2QQAAAAAANB2bp/7GRsWw4aFyWlOKg67Le+o12x6vSavP+qzTCf9jNMmhgXPWV6z37hbGg97/rjvjTqFOuzzXMdtHHe90zYBAAAAAAC0lZOigX1Wt4AddWqxxOsORsRRt8g9+fosn63aZMeo+DjrU7VNrnfWCA4AAAAAABCVKPoZGnYr1GGnE5uEunFhbNqTpufRsBOj056uneTn8xge53ETAAAAAADAPBBFC1paKP85j8M++7Pp69UKp9MGzFGahuRZOsvrnDXkltgEAAAAAAAQWScrKcXsHXXTyitLQ382KuINBs4mt6Zt+r0mGyb93rCdp732rGPgae/ZuOdMeuvfpreuHfd+jHuNJo8d9ZhRmwAAAAAAANruQu0BkY0KoqP0x65pPh9y2G1zRz1/licrp/08zrMa/H2bvmf9Px8WVMftm+X7dbJ/8NTotNcDAAAAAABgOCdFK2l6enCSk4Pjnt/ktU67ftPToE1PW077X++0k6ZN3o9povMsY+7g9dryGbAAAAAAAAA1+EzRyk4LfP2fP3laMBv1/KavNfh6k75WU6Vi6ODPhn1u5+DzREgAAAAAAID43D63oH/64Bdp76g79Gcnga7/zyj9Px8V9prEvSavNWrbJPFw0sdPet2m1552f2nDbp/b/30AAAAAAABmSxQt6Acf/So93X1RewZz6CzRGQAAAAAAgMmIogAAAAAAAEBooiif2tnZSR9++GHtGQAAAAAAADBToiifun//fnr33XdrzwAAAAAAAICZEkUBAAAAAACA0ERRAAAAAAAAIDRRtKClhU5aWvAWAwAAAAAAQE2LtQdE9pd/+vl0eXmh9gwAAAAAAABoNccYCxJEAQAAAAAAoD5RFAAAAAAAAAhNFAUAAAAAAABC85miU+r2Pk4bH/5t6vY+HvmYR784TNdXL6WLS6Pb8xde+3L6wmvrJSYCAAAAAAAASRSd2r8930z/8MHfpf/+9R+OfdzDnx+N/NnChV+lW1d/nL75Z38963kAAAAAAADA/xFFz+BCZy39+n/+fOrnL17YSik9mN0gAAAAAAAA4P/xmaIAAAAAAABAaKIoAAAAAAAAEJooCgAAAAAAAIQmigIAAAAAAAChiaIAAAAAAABAaKIoAAAAAAAAEJooCgAAAAAAAIQmigIAAAAAAAChiaIAAAAAAABAaKIoAAAAAAAAEJooCgAAAAAAAIQmigIAAAAAAAChiaIAAAAAAABAaKIoAAAAAAAAEJooCgAAAAAAAIQmigIAAAAAAAChiaIAAAAAAABAaKIoAAAAAAAAEJooCgAAAAAAAIQmigIAAAAAAAChiaIAAAAAAABAaKIoAAAAAAAAEJooCgAAAAAAAIQmigIAAAAAAAChiaIAAAAAAABAaKIoAAAAAAAAEJooCgAAAAAAAIQmigIAAAAAAAChiaIAAAAAAABAaKIoAAAAAAAAEJooCgAAAAAAAIQmigIAAAAAAAChiaIAAAAAAABAaKIoAAAAAAAAEJooCgAAAAAAAIQmigIAAAAAAAChiaIAAAAAAABAaKIoAAAAAAAAEJooCgAAAAAAAIQmigIAAAAAAAChiaIAAAAAAABAaKIoAAAAAAAAEJooCgAAAAAAAIQmigIAAAAAAAChiaIAAAAAAABAaKIoAAAAAAAAEJooCgAAAAAAAIQmigIAAAAAAAChiaIAAAAAAABAaKIoAAAAAAAAEJooCgAAAAAAAIQmigIAAAAAAAChiaIAAAAAAABAaKIoAAAAAAAAEJooCgAAAAAAAIQmigIAAAAAAAChiaIAAAAAAABAaKIoAAAAAAAAEJooek5tbGykvb292jMAAAAAAABg7omi58zGxka6c+dOunPnjigKAAAAAAAADSzWHkAzGxsb6Z133kkbGxu1pwAAAAAAAMC5IorOOTEUAAAAAAAAzkYUnVNiKAAAAAAAAMyGKDpnxFAAAAAAAACYLVF0ToihAAAAAAAAUIYoWtmjD7bTnb+6M1UMfeONN9LFixdntmVnZyfdvn17ZtcDAAAAAACAeSCKVnb9966m63/8B+nhw4dpb29voue++eab6dq1azPd8/rrr8/0egAAAAAAAFCbKFrZxcvL6Zt376a33norvffee+nevXuN4+jt27fTzZs3Cy8EAAAAAACA8+1C7QF8YmVlJd29ezc9fvw4vf3222llZaX2JAAAAAAAAAhBFJ0z4igAAAAAAADMlig6p8RRAAAAAAAAmA1RdM6JowAAAAAAAHA2oug5IY4CAAAAAADAdETRc6Y/jl67dq32HAAAAAAAAJh7i7UHMB0nRQEAAAAAAKAZJ0UBAAAAAACA0ERRAAAAAAAAIDRRFAAAAAAAAAhNFAUAAAAAAABCE0UBAAAAAACA0ERRAAAAAAAAIDRRFAAAAAAAAAhNFAUAAAAAAABCE0UBAAAAAACA0ERRAAAAAAAAIDRRFAAAAAAAAAhNFAUAAAAAAABCE0UBAAAAAACA0ERRAAAAAAAAIDRRFAAAAAAAAAhNFAUAAAAAAABCE0UBAAAAAACA0ERRAAAAAAAAIDRRFAAAAAAAAAhNFAUAAAAAAABCE0UBAAAAAACA0ERRAAAAAAAAIDRRFAAAAAAAAAhNFAUAAAAAAABCE0UBAAAAAACA0ERRAAAAAAAAIDRRFAAAAAAAAAhNFAUAAAAAAABCE0UBAAAAAACA0ERRAAAAAAAAIDRRFAAAAAAAAAhNFAUAAAAAAABCE0UBAAAAAACA0ERRAAAAAAAAIDRRFAAAAAAAAAhNFAUAAAAAAABCE0UBAAAAAACA0ERRAAAAAAAAIDRRFAAAAAAAAAhNFAUAAAAAAABCE0UBAAAAAACA0ERRAAAAAAAAIDRRFAAAAAAAAAhNFAUAAAAAAABCE0UBAAAAAACA0ERRAAAAAAAAIDRRFAAAAAAAAAhNFAUAAAAAAABCE0UBAAAAAACA0ERRAAAAAAAAIDRRFAAAAAAAAAhNFAUAAAAAAABCE149seUAAAjXSURBVEUBAAAAAACA0ERRAAAAAAAAIDRRFAAAAAAAAAhNFAUAAAAAAABCE0UBAAAAAACA0ERRAAAAAAAAIDRRFAAAAAAAAAhNFAUAAAAAAABCE0UBAAAAAACA0ERRAAAAAAAAIDRRFAAAAAAAAAhtsfaA8yznw7R4YWvq5y9c+PcZrgEAAAAAAACGEUWn9Nu/cS1d+83V9OqVB2e6zu//zpdntAgAAAAAAAAYppNzzrVHRNXtvUxLC+5QDAAAAAAAADUpdgXdu/+ztLVzUHsGAAAAAAAAtJooWtDRx73U7b2sPQMAAAAAAABaTRQFAAAAAAAAQhNFAQAAAAAAgNBEUQAAAAAAACA0URQAAAAAAAAITRQFAAAAAAAAQhNFC/rKrZW09rnl2jMAAAAAAACg1To551x7BAAAAAAAAEApTooCAAAAAAAAoYmiAAAAAAAAQGiiaEHd3svaEwAAAAAAAKD1RNGC7t3/WdraOag9AwAAAAAAAFpNFC3o6OOe06IAAAAAAABQmSgKAAAAAAAAhCaKAgAAAAAAAKGJogAAAAAAAEBooigAAAAAAAAQmigKAAAAAAAAhCaKFvSVWytp7XPLtWcAAAAAAABAq3Vyzrn2CAAAAAAAAIBSnBQFAAAAAAAAQhNFAQAAAAAAgNBE0YIOj3u1JwAAAAAAAEDriaIFfeu7H6WtnYPaMwAAAAAAAKDVRNGCur2cur2XtWcAAAAAAABAq4miAAAAAAAAQGiiKAAAAAAAABCaKAoAAAAAAACEJooCAAAAAAAAoYmiAAAAAAAAQGiiaEF/9PnfStdXL9WeAQAAAAAAAK3WyTnn2iMAAAAAAAAASnFSFAAAAAAAAAhNFAUAAAAAAABCE0ULOjzu1Z4AAAAAAAAArSeKFvSt736UtnYOas8AAAAAAACAVhNFC+r2cur2XtaeAQAAAAAAAK0migIAAAAAAAChiaIAAAAAAABAaKIoAAAAAAAAEJooCgAAAAAAAIQmigIAAAAAAAChiaIFfe2La+n66qXaMwAAAAAAAKDVOjnnXHsEAAAAAAAAQClOigIAAAAAAAChiaIAAAAAAABAaKJoQXtH3doTAAAAAAAAoPVE0YLef/AobW7v154BAAAAAAAArSaKFtTt5doTAAAAAAAAoPVEUQAAAAAAACA0URQAAAAAAAAITRQFAAAAAAAAQhNFAQAAAAAAgNBEUQAAAAAAACA0UbSgr31xLV1fvVR7BgAAAAAAALRaJ+eca48AAAAAAAAAKMVJUQAAAAAAACA0URQAAAAAAAAITRQtaO+oW3sCAAAAAAAAtJ4oWtD7Dx6lze392jMAAAAAAACg1UTRgrq9XHsCAAAAAAAAtJ4oCgAAAAAAAIQmigIAAAAAAAChiaIAAAAAAABAaKIoAAAAAAAAEJooCgAAAAAAAIQmihb09S+9lm5cvVx7BgAAAAAAALRaJ+eca48AAAAAAAAAKMVJUQAAAAAAACA0URQAAAAAAAAITRQt6Nn+ce0JAAAAAAAA0HqiaEHvf+9x2tzerz0DAAAAAAAAWk0UBQAAAAAAAEITRQEAAAAAAIDQRFEAAAAAAAAgNFEUAAAAAAAACE0UBQAAAAAAAEITRQEAAAAAAIDQRNGCvv6l19KNq5drzwAAAAAAAIBW6+Scc+0RAAAAAAAAAKU4KQoAAAAAAACEJooCAAAAAAAAoYmiBT3bP649AQAAAAAAAFpPFC3o/e89Tpvb+7VnAAAAAAAAQKuJogAAAAAAAEBooigAAAAAAAAQmigKAAAAAAAAhCaKAgAAAAAAAKGJogAAAAAAAEBooigAAAAAAAAQWifnnGuPiGpzez/duHo5XV5eqD0FAAAAAAAAWksUBQAAAAAAAEJz+1wAAAAAAAAgNFEUAAAAAAAACE0ULWh790Xq9l7WngEAAAAAAACtJooW9O2NJ2lr56D2DAAAAAAAAGg1URQAAAAAAAAITRQFAAAAAAAAQhNFAQAAAAAAgNBEUQAAAAAAACA0URQAAAAAAAAITRQFAAAAAAAAQuvknHPtEVFtbu+nG1cvp8vLC7WnAAAAAAAAQGuJogAAAAAAAEBobp8LAAAAAAAAhCaKAgAAAAAAAKGJogVt775I3d7L2jMAAAAAAACg1UTRgr698SRt7RzUngEAAAAAAACtJooCAAAAAAAAoYmiAAAAAAAAQGiiKAAAAAAAABCaKAoAAAAAAACEJooCAAAAAAAAoYmiAAAAAAAAQGidnHOuPSKqrZ2DdHPtlbS0oD0DAAAAAABALaIoAAAAAAAAEJojjAAAAAAAAEBooigAAAAAAAAQmiha0NbOQer2XtaeAQAAAAAAAK0mihb0Nz/4edraOag9AwAAAAAAAFpNFAUAAAAAAABCE0UBAAAAAACA0ERRAAAAAAAAIDRRFAAAAAAAAAhNFAUAAAAAAABCE0UBAAAAAACA0Do551x7RFRbOwfp5toraWlBewYAAAAAAIBaRFEAAAAAAAAgNEcYAQAAAAAAgNBEUQAAAAAAACA0UbSgze39dHjcqz0DAAAAAAAAWk0ULeg7P3yanjw/rD0DAAAAAAAAWk0UBQAAAAAAAEITRQEAAAAAAIDQRFEAAAAAAAAgNFEUAAAAAAAACE0UBQAAAAAAAEITRQEAAAAAAIDQOjnnXHtEVNu7L9KrV5bT0oL2DAAAAAAAALWIogAAAAAAAEBojjACAAAAAAAAoYmiAAAAAAAAQGiiaEGb2/vp8LhXewYAAAAAAAC0miha0Hd++DQ9eX5YewYAAAAAAAC0migKAAAAAAAAhCaKAgAAAAAAAKGJogAAAAAAAEBooigAAAAAAAAQmigKAAAAAAAAhCaKAgAAAAAAAKF1cs659oiotndfpFevLKelBe0ZAAAAAAAAahFFAQAAAAAAgNAcYQQAAAAAAABCE0UBAAAAAACA0ETRgn70aDcdHvdqzwAAAAAAAIBWE0UL+ud/fZ6e7R/XngEAAAAAAACt1sk559ojAAAAAAAAAEr5X0bxTw0LDND/AAAAAElFTkSuQmCC;" vertex="1" parent="1">
          <mxGeometry x="-200" y="140" width="1861" height="1039" as="geometry" />
        </mxCell>
      </root>
    </mxGraphModel>
  </diagram>
  <diagram id="ET4CnQbWJv6h8d4_vdse" name="第 2 页">
    <mxGraphModel dx="2858" dy="2152" grid="1" gridSize="10" guides="1" tooltips="1" connect="1" arrows="1" fold="1" page="1" pageScale="1" pageWidth="827" pageHeight="1169" background="none" math="0" shadow="0">
      <root>
        <mxCell id="0" />
        <mxCell id="1" parent="0" />
        <mxCell id="7bkOnbVFPRslqszPYuNe-1" value="&lt;span&gt;Superset&lt;/span&gt;" style="shape=umlLifeline;perimeter=lifelinePerimeter;whiteSpace=wrap;html=1;container=1;collapsible=0;recursiveResize=0;outlineConnect=0;fontStyle=1;fillColor=#dae8fc;strokeColor=#6c8ebf;shadow=0;glass=0;rounded=0;sketch=1;" vertex="1" parent="1">
          <mxGeometry x="-470" y="-380" width="100" height="450" as="geometry" />
        </mxCell>
        <mxCell id="7bkOnbVFPRslqszPYuNe-2" value="" style="html=1;points=[];perimeter=orthogonalPerimeter;fontStyle=1;" vertex="1" parent="7bkOnbVFPRslqszPYuNe-1">
          <mxGeometry x="45" y="80" width="10" height="280" as="geometry" />
        </mxCell>
        <mxCell id="TiXd6IqIWYDtKNcAzkQZ-1" value="拦截查询&lt;br&gt;提取信息" style="edgeStyle=orthogonalEdgeStyle;html=1;align=left;spacingLeft=2;endArrow=block;rounded=0;entryX=1;entryY=0;curved=1;fontStyle=1;" edge="1" parent="7bkOnbVFPRslqszPYuNe-1">
          <mxGeometry relative="1" as="geometry">
            <mxPoint x="55" y="92.97000000000003" as="sourcePoint" />
            <Array as="points">
              <mxPoint x="85" y="93" />
              <mxPoint x="85" y="113" />
            </Array>
            <mxPoint x="60" y="112.97000000000003" as="targetPoint" />
          </mxGeometry>
        </mxCell>
        <mxCell id="PA5CnpWp9CDyrpU5M7lm-1" value="&lt;ul style=&quot;font-size: 11px&quot;&gt;&lt;li&gt;&lt;span style=&quot;background-color: rgb(235 , 235 , 235)&quot;&gt;user&lt;/span&gt;&lt;/li&gt;&lt;li&gt;&lt;span style=&quot;background-color: rgb(235 , 235 , 235)&quot;&gt;dbType&lt;/span&gt;&lt;/li&gt;&lt;li&gt;&lt;span style=&quot;background-color: rgb(235 , 235 , 235)&quot;&gt;db&lt;/span&gt;&lt;/li&gt;&lt;li&gt;&lt;span style=&quot;background-color: rgb(235 , 235 , 235)&quot;&gt;schema&lt;/span&gt;&lt;/li&gt;&lt;li&gt;&lt;span style=&quot;background-color: rgb(235 , 235 , 235)&quot;&gt;table&lt;/span&gt;&lt;/li&gt;&lt;li&gt;&lt;span style=&quot;background-color: rgb(235 , 235 , 235)&quot;&gt;sql&lt;/span&gt;&lt;/li&gt;&lt;/ul&gt;" style="text;html=1;align=left;verticalAlign=middle;resizable=0;points=[];autosize=1;strokeColor=none;fillColor=none;fontStyle=1;" vertex="1" parent="7bkOnbVFPRslqszPYuNe-1">
          <mxGeometry x="93" y="130" width="100" height="110" as="geometry" />
        </mxCell>
        <mxCell id="GnwQlceZINwU856YWRCS-22" value="" style="html=1;points=[];perimeter=orthogonalPerimeter;fontSize=14;fontStyle=1;" vertex="1" parent="7bkOnbVFPRslqszPYuNe-1">
          <mxGeometry x="45" y="380" width="10" height="40" as="geometry" />
        </mxCell>
        <mxCell id="GnwQlceZINwU856YWRCS-23" value="权限允许&lt;br&gt;交换engine" style="edgeStyle=orthogonalEdgeStyle;html=1;align=left;spacingLeft=2;endArrow=block;rounded=0;entryX=1;entryY=0;labelBackgroundColor=#EBEBEB;fontSize=14;exitX=1.009;exitY=0.973;exitDx=0;exitDy=0;exitPerimeter=0;curved=1;fontStyle=1;" edge="1" target="GnwQlceZINwU856YWRCS-22" parent="7bkOnbVFPRslqszPYuNe-1" source="7bkOnbVFPRslqszPYuNe-2">
          <mxGeometry relative="1" as="geometry">
            <mxPoint x="50" y="360" as="sourcePoint" />
            <Array as="points">
              <mxPoint x="55" y="350" />
              <mxPoint x="80" y="350" />
              <mxPoint x="80" y="380" />
            </Array>
          </mxGeometry>
        </mxCell>
        <mxCell id="7bkOnbVFPRslqszPYuNe-4" value="微服务网关" style="shape=umlLifeline;perimeter=lifelinePerimeter;whiteSpace=wrap;html=1;container=1;collapsible=0;recursiveResize=0;outlineConnect=0;fontStyle=1;fillColor=#dae8fc;strokeColor=#6c8ebf;sketch=1;" vertex="1" parent="1">
          <mxGeometry x="-296" y="-380" width="100" height="410" as="geometry" />
        </mxCell>
        <mxCell id="7bkOnbVFPRslqszPYuNe-6" value="" style="html=1;points=[];perimeter=orthogonalPerimeter;fontStyle=1;" vertex="1" parent="7bkOnbVFPRslqszPYuNe-4">
          <mxGeometry x="45" y="120" width="10" height="240" as="geometry" />
        </mxCell>
        <mxCell id="l0FabqGkmtLgNzl0PeOA-1" value="&lt;div&gt;&lt;br&gt;&lt;/div&gt;" style="endArrow=open;endSize=12;html=1;rounded=0;align=left;curved=1;fontStyle=1;" edge="1" parent="7bkOnbVFPRslqszPYuNe-4">
          <mxGeometry x="-0.2375" y="20" width="160" relative="1" as="geometry">
            <mxPoint x="-117" y="140.00000000000006" as="sourcePoint" />
            <mxPoint x="43" y="140.00000000000006" as="targetPoint" />
            <mxPoint as="offset" />
          </mxGeometry>
        </mxCell>
        <mxCell id="7bkOnbVFPRslqszPYuNe-8" value="USER-SERVICE" style="shape=umlLifeline;perimeter=lifelinePerimeter;whiteSpace=wrap;html=1;container=1;collapsible=0;recursiveResize=0;outlineConnect=0;fontStyle=1;fillColor=#dae8fc;strokeColor=#6c8ebf;sketch=1;" vertex="1" parent="1">
          <mxGeometry x="-126" y="-380" width="100" height="410" as="geometry" />
        </mxCell>
        <mxCell id="7bkOnbVFPRslqszPYuNe-9" value="" style="html=1;points=[];perimeter=orthogonalPerimeter;fontStyle=1;" vertex="1" parent="7bkOnbVFPRslqszPYuNe-8">
          <mxGeometry x="45" y="122" width="10" height="118" as="geometry" />
        </mxCell>
        <mxCell id="7bkOnbVFPRslqszPYuNe-10" value="dbType" style="endArrow=open;endSize=12;html=1;rounded=0;curved=1;" edge="1" parent="7bkOnbVFPRslqszPYuNe-8">
          <mxGeometry width="160" relative="1" as="geometry">
            <mxPoint x="55" y="152" as="sourcePoint" />
            <mxPoint x="236" y="152" as="targetPoint" />
          </mxGeometry>
        </mxCell>
        <mxCell id="GnwQlceZINwU856YWRCS-7" value="解析sql、提取元数据" style="edgeStyle=orthogonalEdgeStyle;html=1;align=left;spacingLeft=2;endArrow=block;rounded=0;entryX=1;entryY=0;curved=1;fontStyle=1;" edge="1" parent="7bkOnbVFPRslqszPYuNe-8">
          <mxGeometry relative="1" as="geometry">
            <mxPoint x="55" y="200.00000000000003" as="sourcePoint" />
            <Array as="points">
              <mxPoint x="85" y="200.03" />
              <mxPoint x="85" y="220.03" />
            </Array>
            <mxPoint x="60" y="220.00000000000003" as="targetPoint" />
          </mxGeometry>
        </mxCell>
        <mxCell id="GnwQlceZINwU856YWRCS-8" value="" style="html=1;points=[];perimeter=orthogonalPerimeter;fontStyle=1;" vertex="1" parent="7bkOnbVFPRslqszPYuNe-8">
          <mxGeometry x="45" y="250" width="10" height="100" as="geometry" />
        </mxCell>
        <mxCell id="GnwQlceZINwU856YWRCS-9" value="user + 元数据" style="edgeStyle=orthogonalEdgeStyle;html=1;align=left;spacingLeft=2;endArrow=block;rounded=0;entryX=0.96;entryY=0.088;entryDx=0;entryDy=0;entryPerimeter=0;curved=1;fontStyle=1;" edge="1" parent="7bkOnbVFPRslqszPYuNe-8" target="GnwQlceZINwU856YWRCS-8">
          <mxGeometry relative="1" as="geometry">
            <mxPoint x="55" y="230" as="sourcePoint" />
            <Array as="points">
              <mxPoint x="85" y="230" />
              <mxPoint x="85" y="257" />
              <mxPoint x="60" y="257" />
            </Array>
            <mxPoint x="60" y="250" as="targetPoint" />
          </mxGeometry>
        </mxCell>
        <mxCell id="GnwQlceZINwU856YWRCS-21" value="校验操作权限" style="edgeStyle=orthogonalEdgeStyle;html=1;align=left;spacingLeft=2;endArrow=block;rounded=0;entryX=0.96;entryY=0.088;entryDx=0;entryDy=0;entryPerimeter=0;curved=1;fontStyle=1;" edge="1" parent="7bkOnbVFPRslqszPYuNe-8">
          <mxGeometry relative="1" as="geometry">
            <mxPoint x="55.400000000000006" y="290" as="sourcePoint" />
            <Array as="points">
              <mxPoint x="85.4" y="290" />
              <mxPoint x="85.4" y="317" />
              <mxPoint x="60.400000000000006" y="317" />
            </Array>
            <mxPoint x="54.999999999999915" y="318.79999999999995" as="targetPoint" />
          </mxGeometry>
        </mxCell>
        <mxCell id="7bkOnbVFPRslqszPYuNe-7" value="return" style="html=1;verticalAlign=bottom;endArrow=open;dashed=1;endSize=8;rounded=0;curved=1;fontStyle=1;" edge="1" parent="7bkOnbVFPRslqszPYuNe-8">
          <mxGeometry relative="1" as="geometry">
            <mxPoint x="-114" y="330" as="targetPoint" />
            <mxPoint x="45" y="330" as="sourcePoint" />
          </mxGeometry>
        </mxCell>
        <mxCell id="7bkOnbVFPRslqszPYuNe-17" value="请求请求" style="endArrow=open;endSize=12;html=1;rounded=0;curved=1;fontStyle=1;" edge="1" parent="1">
          <mxGeometry width="160" relative="1" as="geometry">
            <mxPoint x="-241" y="-233.07999999999993" as="sourcePoint" />
            <mxPoint x="-81" y="-233.07999999999993" as="targetPoint" />
          </mxGeometry>
        </mxCell>
        <mxCell id="7bkOnbVFPRslqszPYuNe-21" value="return" style="html=1;verticalAlign=bottom;endArrow=open;dashed=1;endSize=8;exitX=-0.4;exitY=0.748;rounded=0;exitDx=0;exitDy=0;exitPerimeter=0;curved=1;fontStyle=1;" edge="1" parent="1">
          <mxGeometry relative="1" as="geometry">
            <mxPoint x="-413" y="-40" as="targetPoint" />
            <mxPoint x="-252" y="-39.896000000000186" as="sourcePoint" />
          </mxGeometry>
        </mxCell>
        <mxCell id="1MdolH6XwqeCBL1k4fgr-1" value="用户" style="shape=umlActor;verticalLabelPosition=bottom;verticalAlign=top;html=1;outlineConnect=0;fontStyle=1;" vertex="1" parent="1">
          <mxGeometry x="-520" y="-390" width="30" height="60" as="geometry" />
        </mxCell>
        <mxCell id="S9uLsMFyZeaKZXQKDELJ-1" value="SqlParser" style="swimlane;startSize=20;horizontal=1;containerType=tree;newEdgeStyle={&quot;edgeStyle&quot;:&quot;elbowEdgeStyle&quot;,&quot;startArrow&quot;:&quot;none&quot;,&quot;endArrow&quot;:&quot;none&quot;};sketch=1;fillColor=#dae8fc;strokeColor=#6c8ebf;" vertex="1" parent="1">
          <mxGeometry x="110" y="-390" width="580" height="270" as="geometry" />
        </mxCell>
        <mxCell id="O03SMdqYg0pAPEBbGz09-1" value="«interface»&lt;br&gt;&lt;b&gt;SelectSqlParser&lt;/b&gt;" style="html=1;" vertex="1" parent="S9uLsMFyZeaKZXQKDELJ-1">
          <mxGeometry x="289" y="30" width="110" height="40" as="geometry" />
        </mxCell>
        <mxCell id="4xX3fbSohNuHkvgWMAiY-7" style="edgeStyle=orthogonalEdgeStyle;rounded=0;orthogonalLoop=1;jettySize=auto;html=1;labelBackgroundColor=#EBEBEB;endArrow=none;endFill=0;curved=1;" edge="1" parent="S9uLsMFyZeaKZXQKDELJ-1" source="R6NAzZrplejJNKmN4kFw-2">
          <mxGeometry relative="1" as="geometry">
            <mxPoint x="340" y="150" as="targetPoint" />
            <Array as="points">
              <mxPoint x="194" y="150" />
            </Array>
          </mxGeometry>
        </mxCell>
        <mxCell id="R6NAzZrplejJNKmN4kFw-2" value="&lt;p style=&quot;margin: 0px ; margin-top: 4px ; text-align: center&quot;&gt;&lt;b&gt;AbsractSqlParser&lt;/b&gt;&lt;br&gt;&lt;/p&gt;" style="verticalAlign=top;align=left;overflow=fill;fontSize=12;fontFamily=Helvetica;html=1;" vertex="1" parent="S9uLsMFyZeaKZXQKDELJ-1">
          <mxGeometry x="124" y="173" width="140" height="25" as="geometry" />
        </mxCell>
        <mxCell id="4xX3fbSohNuHkvgWMAiY-2" value="&lt;p style=&quot;margin: 0px ; margin-top: 4px ; text-align: center&quot;&gt;&lt;b&gt;AbsractSqlParser&lt;/b&gt;&lt;br&gt;&lt;/p&gt;" style="verticalAlign=top;align=left;overflow=fill;fontSize=12;fontFamily=Helvetica;html=1;" vertex="1" parent="S9uLsMFyZeaKZXQKDELJ-1">
          <mxGeometry x="274" y="173" width="140" height="25" as="geometry" />
        </mxCell>
        <mxCell id="4xX3fbSohNuHkvgWMAiY-3" value="&lt;p style=&quot;margin: 0px ; margin-top: 4px ; text-align: center&quot;&gt;&lt;b&gt;AbsractSqlParser&lt;/b&gt;&lt;br&gt;&lt;/p&gt;" style="verticalAlign=top;align=left;overflow=fill;fontSize=12;fontFamily=Helvetica;html=1;" vertex="1" parent="S9uLsMFyZeaKZXQKDELJ-1">
          <mxGeometry x="424" y="173" width="140" height="25" as="geometry" />
        </mxCell>
        <mxCell id="4xX3fbSohNuHkvgWMAiY-1" value="&lt;p style=&quot;margin: 0px ; margin-top: 4px ; text-align: center&quot;&gt;&lt;b&gt;AbsractSqlParser&lt;/b&gt;&lt;br&gt;&lt;/p&gt;" style="verticalAlign=top;align=left;overflow=fill;fontSize=12;fontFamily=Helvetica;html=1;" vertex="1" parent="S9uLsMFyZeaKZXQKDELJ-1">
          <mxGeometry x="274" y="100" width="140" height="25" as="geometry" />
        </mxCell>
        <mxCell id="4xX3fbSohNuHkvgWMAiY-5" value="" style="endArrow=block;dashed=1;endFill=0;endSize=12;html=1;rounded=0;dashPattern=1 1;labelBackgroundColor=#EBEBEB;entryX=0.495;entryY=1.022;entryDx=0;entryDy=0;entryPerimeter=0;exitX=0.5;exitY=0;exitDx=0;exitDy=0;curved=1;" edge="1" parent="S9uLsMFyZeaKZXQKDELJ-1" source="4xX3fbSohNuHkvgWMAiY-1" target="O03SMdqYg0pAPEBbGz09-1">
          <mxGeometry width="160" relative="1" as="geometry">
            <mxPoint x="344" y="100" as="sourcePoint" />
            <mxPoint x="314" y="90" as="targetPoint" />
          </mxGeometry>
        </mxCell>
        <mxCell id="4xX3fbSohNuHkvgWMAiY-6" value="" style="endArrow=block;endSize=16;endFill=0;html=1;rounded=0;labelBackgroundColor=#EBEBEB;entryX=0.5;entryY=1;entryDx=0;entryDy=0;exitX=0.5;exitY=0;exitDx=0;exitDy=0;curved=1;" edge="1" parent="S9uLsMFyZeaKZXQKDELJ-1" source="4xX3fbSohNuHkvgWMAiY-2" target="4xX3fbSohNuHkvgWMAiY-1">
          <mxGeometry x="-0.1364" y="-30" width="160" relative="1" as="geometry">
            <mxPoint x="185" y="150" as="sourcePoint" />
            <mxPoint x="345" y="150" as="targetPoint" />
            <mxPoint as="offset" />
          </mxGeometry>
        </mxCell>
        <mxCell id="GnwQlceZINwU856YWRCS-1" value="&lt;p style=&quot;margin: 0px ; margin-top: 4px ; text-align: center&quot;&gt;&lt;b&gt;SqlParserContext&lt;/b&gt;&lt;br&gt;&lt;/p&gt;&lt;hr size=&quot;1&quot;&gt;&lt;div style=&quot;height: 2px&quot;&gt;&amp;nbsp;- sqlParserMapMap&lt;/div&gt;" style="verticalAlign=top;align=left;overflow=fill;fontSize=12;fontFamily=Helvetica;html=1;" vertex="1" parent="S9uLsMFyZeaKZXQKDELJ-1">
          <mxGeometry x="10" y="210" width="140" height="50" as="geometry" />
        </mxCell>
        <mxCell id="GnwQlceZINwU856YWRCS-2" value="" style="endArrow=none;html=1;endSize=12;startArrow=diamondThin;startSize=14;startFill=0;edgeStyle=orthogonalEdgeStyle;align=left;verticalAlign=bottom;rounded=0;labelBackgroundColor=#EBEBEB;entryX=0.5;entryY=1;entryDx=0;entryDy=0;endFill=0;exitX=1;exitY=0.4;exitDx=0;exitDy=0;exitPerimeter=0;curved=1;" edge="1" parent="S9uLsMFyZeaKZXQKDELJ-1" source="GnwQlceZINwU856YWRCS-1">
          <mxGeometry x="-1" y="3" relative="1" as="geometry">
            <mxPoint x="167" y="230" as="sourcePoint" />
            <mxPoint x="351" y="198" as="targetPoint" />
            <Array as="points">
              <mxPoint x="351" y="230" />
            </Array>
          </mxGeometry>
        </mxCell>
        <mxCell id="GnwQlceZINwU856YWRCS-5" value="&lt;b&gt;parser实例&lt;/b&gt;" style="html=1;verticalAlign=bottom;endArrow=open;dashed=1;endSize=8;exitX=-0.4;exitY=0.748;rounded=0;exitDx=0;exitDy=0;exitPerimeter=0;curved=1;" edge="1" parent="1">
          <mxGeometry relative="1" as="geometry">
            <mxPoint x="-70" y="-200" as="targetPoint" />
            <mxPoint x="110" y="-199.89599999999996" as="sourcePoint" />
          </mxGeometry>
        </mxCell>
        <mxCell id="GnwQlceZINwU856YWRCS-10" style="edgeStyle=orthogonalEdgeStyle;rounded=0;orthogonalLoop=1;jettySize=auto;html=1;labelBackgroundColor=#EBEBEB;endArrow=none;endFill=0;curved=1;" edge="1" parent="1" source="4xX3fbSohNuHkvgWMAiY-3">
          <mxGeometry relative="1" as="geometry">
            <mxPoint x="450" y="-240" as="targetPoint" />
            <Array as="points">
              <mxPoint x="624" y="-240" />
            </Array>
          </mxGeometry>
        </mxCell>
        <mxCell id="GnwQlceZINwU856YWRCS-12" style="edgeStyle=orthogonalEdgeStyle;rounded=0;orthogonalLoop=1;jettySize=auto;html=1;labelBackgroundColor=#EBEBEB;endArrow=none;endFill=0;curved=1;" edge="1" parent="1" source="4xX3fbSohNuHkvgWMAiY-3">
          <mxGeometry relative="1" as="geometry">
            <mxPoint x="310" y="-160" as="targetPoint" />
            <Array as="points">
              <mxPoint x="605" y="-160" />
            </Array>
          </mxGeometry>
        </mxCell>
        <mxCell id="GnwQlceZINwU856YWRCS-16" value="" style="group;fillColor=#dae8fc;strokeColor=#6c8ebf;" vertex="1" connectable="0" parent="1">
          <mxGeometry x="50" y="-109" width="230" height="99" as="geometry" />
        </mxCell>
        <mxCell id="GnwQlceZINwU856YWRCS-14" value="&lt;b&gt;数据权限配置&lt;/b&gt;" style="shape=umlFrame;whiteSpace=wrap;html=1;width=90;height=20;" vertex="1" parent="GnwQlceZINwU856YWRCS-16">
          <mxGeometry x="20" width="210" height="99" as="geometry" />
        </mxCell>
        <mxCell id="GnwQlceZINwU856YWRCS-15" value="&lt;div style=&quot;font-size: 14px&quot;&gt;&lt;ul&gt;&lt;li&gt;&lt;b&gt;user&lt;/b&gt;&lt;/li&gt;&lt;li&gt;&lt;b&gt;role&lt;/b&gt;&lt;/li&gt;&lt;li&gt;&lt;b&gt;permission&lt;/b&gt;&lt;/li&gt;&lt;li&gt;&lt;b&gt;data-permission-config&lt;/b&gt;&lt;/li&gt;&lt;/ul&gt;&lt;/div&gt;" style="text;html=1;align=left;verticalAlign=middle;resizable=0;points=[];autosize=1;strokeColor=none;fillColor=none;" vertex="1" parent="GnwQlceZINwU856YWRCS-16">
          <mxGeometry y="12.375" width="220" height="90" as="geometry" />
        </mxCell>
        <mxCell id="GnwQlceZINwU856YWRCS-17" style="edgeStyle=orthogonalEdgeStyle;rounded=0;orthogonalLoop=1;jettySize=auto;html=1;labelBackgroundColor=#EBEBEB;fontSize=14;endArrow=none;endFill=0;curved=1;" edge="1" parent="1" source="R6NAzZrplejJNKmN4kFw-2">
          <mxGeometry relative="1" as="geometry">
            <mxPoint x="304" y="-160" as="targetPoint" />
          </mxGeometry>
        </mxCell>
        <mxCell id="GnwQlceZINwU856YWRCS-19" value="查询权限配置" style="endArrow=open;endSize=12;html=1;rounded=0;curved=1;fontStyle=1;" edge="1" parent="1">
          <mxGeometry width="160" relative="1" as="geometry">
            <mxPoint x="-70" y="-99" as="sourcePoint" />
            <mxPoint x="50" y="-99" as="targetPoint" />
          </mxGeometry>
        </mxCell>
        <mxCell id="GnwQlceZINwU856YWRCS-27" style="edgeStyle=orthogonalEdgeStyle;curved=1;rounded=0;orthogonalLoop=1;jettySize=auto;html=1;entryX=1.021;entryY=0.493;entryDx=0;entryDy=0;entryPerimeter=0;labelBackgroundColor=#EBEBEB;fontSize=14;endArrow=classicThin;endFill=1;" edge="1" parent="1" source="GnwQlceZINwU856YWRCS-25" target="GnwQlceZINwU856YWRCS-14">
          <mxGeometry relative="1" as="geometry" />
        </mxCell>
        <mxCell id="GnwQlceZINwU856YWRCS-25" value="MySQL DB &#xa;instance" style="sketch=0;outlineConnect=0;fontColor=#232F3E;gradientColor=none;strokeColor=#232F3E;fillColor=#ffffff;dashed=0;verticalLabelPosition=bottom;verticalAlign=top;align=center;html=1;fontSize=12;fontStyle=0;aspect=fixed;shape=mxgraph.aws4.resourceIcon;resIcon=mxgraph.aws4.mysql_db_instance;rounded=0;shadow=0;glass=0;" vertex="1" parent="1">
          <mxGeometry x="320" y="-99.5" width="80" height="80" as="geometry" />
        </mxCell>
      </root>
    </mxGraphModel>
  </diagram>
  <diagram id="kLxd8AD_mUY38kB0kXvs" name="第 3 页">
    <mxGraphModel dx="2249" dy="1857" grid="1" gridSize="10" guides="1" tooltips="1" connect="1" arrows="1" fold="1" page="1" pageScale="1" pageWidth="827" pageHeight="1169" math="0" shadow="0">
      <root>
        <mxCell id="0" />
        <mxCell id="1" parent="0" />
        <mxCell id="DsEclp_MmNrwsCNi9r68-1" value="&lt;span&gt;Superset&lt;/span&gt;" style="shape=umlLifeline;perimeter=lifelinePerimeter;whiteSpace=wrap;html=1;container=1;collapsible=0;recursiveResize=0;outlineConnect=0;fontStyle=1;sketch=1;fillColor=#d5e8d4;strokeColor=#82b366;" vertex="1" parent="1">
          <mxGeometry x="-470" y="-380" width="100" height="450" as="geometry" />
        </mxCell>
        <mxCell id="DsEclp_MmNrwsCNi9r68-2" value="" style="html=1;points=[];perimeter=orthogonalPerimeter;fontStyle=1;sketch=1;" vertex="1" parent="DsEclp_MmNrwsCNi9r68-1">
          <mxGeometry x="45" y="80" width="10" height="280" as="geometry" />
        </mxCell>
        <mxCell id="DsEclp_MmNrwsCNi9r68-3" value="拦截查询&lt;br&gt;提取信息" style="edgeStyle=orthogonalEdgeStyle;html=1;align=left;spacingLeft=2;endArrow=block;rounded=0;entryX=1;entryY=0;curved=1;fontStyle=1;sketch=1;" edge="1" parent="DsEclp_MmNrwsCNi9r68-1">
          <mxGeometry relative="1" as="geometry">
            <mxPoint x="55" y="92.97000000000003" as="sourcePoint" />
            <Array as="points">
              <mxPoint x="85" y="93" />
              <mxPoint x="85" y="113" />
            </Array>
            <mxPoint x="60" y="112.97000000000003" as="targetPoint" />
          </mxGeometry>
        </mxCell>
        <mxCell id="DsEclp_MmNrwsCNi9r68-4" value="&lt;ul style=&quot;font-size: 11px&quot;&gt;&lt;li&gt;&lt;span style=&quot;background-color: rgb(235 , 235 , 235)&quot;&gt;user&lt;/span&gt;&lt;/li&gt;&lt;li&gt;&lt;span style=&quot;background-color: rgb(235 , 235 , 235)&quot;&gt;dbType&lt;/span&gt;&lt;/li&gt;&lt;li&gt;&lt;span style=&quot;background-color: rgb(235 , 235 , 235)&quot;&gt;db&lt;/span&gt;&lt;/li&gt;&lt;li&gt;&lt;span style=&quot;background-color: rgb(235 , 235 , 235)&quot;&gt;schema&lt;/span&gt;&lt;/li&gt;&lt;li&gt;&lt;span style=&quot;background-color: rgb(235 , 235 , 235)&quot;&gt;table&lt;/span&gt;&lt;/li&gt;&lt;li&gt;&lt;span style=&quot;background-color: rgb(235 , 235 , 235)&quot;&gt;sql&lt;/span&gt;&lt;/li&gt;&lt;/ul&gt;" style="text;html=1;align=left;verticalAlign=middle;resizable=0;points=[];autosize=1;strokeColor=none;fillColor=none;fontStyle=1;sketch=1;" vertex="1" parent="DsEclp_MmNrwsCNi9r68-1">
          <mxGeometry x="93" y="130" width="100" height="110" as="geometry" />
        </mxCell>
        <mxCell id="DsEclp_MmNrwsCNi9r68-5" value="" style="html=1;points=[];perimeter=orthogonalPerimeter;fontSize=14;fontStyle=1;sketch=1;" vertex="1" parent="DsEclp_MmNrwsCNi9r68-1">
          <mxGeometry x="45" y="380" width="10" height="40" as="geometry" />
        </mxCell>
        <mxCell id="DsEclp_MmNrwsCNi9r68-6" value="权限允许&lt;br&gt;交换engine" style="edgeStyle=orthogonalEdgeStyle;html=1;align=left;spacingLeft=2;endArrow=block;rounded=0;entryX=1;entryY=0;labelBackgroundColor=#EBEBEB;fontSize=14;exitX=1.009;exitY=0.973;exitDx=0;exitDy=0;exitPerimeter=0;curved=1;fontStyle=1;sketch=1;" edge="1" parent="DsEclp_MmNrwsCNi9r68-1" source="DsEclp_MmNrwsCNi9r68-2" target="DsEclp_MmNrwsCNi9r68-5">
          <mxGeometry relative="1" as="geometry">
            <mxPoint x="50" y="360" as="sourcePoint" />
            <Array as="points">
              <mxPoint x="55" y="350" />
              <mxPoint x="80" y="350" />
              <mxPoint x="80" y="380" />
            </Array>
          </mxGeometry>
        </mxCell>
        <mxCell id="DsEclp_MmNrwsCNi9r68-7" value="微服务网关" style="shape=umlLifeline;perimeter=lifelinePerimeter;whiteSpace=wrap;html=1;container=1;collapsible=0;recursiveResize=0;outlineConnect=0;fontStyle=1;sketch=1;fillColor=#d5e8d4;strokeColor=#82b366;" vertex="1" parent="1">
          <mxGeometry x="-296" y="-380" width="100" height="410" as="geometry" />
        </mxCell>
        <mxCell id="DsEclp_MmNrwsCNi9r68-8" value="" style="html=1;points=[];perimeter=orthogonalPerimeter;fontStyle=1;sketch=1;" vertex="1" parent="DsEclp_MmNrwsCNi9r68-7">
          <mxGeometry x="45" y="120" width="10" height="240" as="geometry" />
        </mxCell>
        <mxCell id="DsEclp_MmNrwsCNi9r68-9" value="&lt;div&gt;&lt;br&gt;&lt;/div&gt;" style="endArrow=open;endSize=12;html=1;rounded=0;align=left;curved=1;fontStyle=1;sketch=1;" edge="1" parent="DsEclp_MmNrwsCNi9r68-7">
          <mxGeometry x="-0.2375" y="20" width="160" relative="1" as="geometry">
            <mxPoint x="-117" y="140.00000000000006" as="sourcePoint" />
            <mxPoint x="43" y="140.00000000000006" as="targetPoint" />
            <mxPoint as="offset" />
          </mxGeometry>
        </mxCell>
        <mxCell id="DsEclp_MmNrwsCNi9r68-10" value="USER-SERVICE" style="shape=umlLifeline;perimeter=lifelinePerimeter;whiteSpace=wrap;html=1;container=1;collapsible=0;recursiveResize=0;outlineConnect=0;fontStyle=1;sketch=1;fillColor=#d5e8d4;strokeColor=#82b366;" vertex="1" parent="1">
          <mxGeometry x="-126" y="-380" width="100" height="410" as="geometry" />
        </mxCell>
        <mxCell id="DsEclp_MmNrwsCNi9r68-11" value="" style="html=1;points=[];perimeter=orthogonalPerimeter;fontStyle=1;sketch=1;" vertex="1" parent="DsEclp_MmNrwsCNi9r68-10">
          <mxGeometry x="45" y="122" width="10" height="118" as="geometry" />
        </mxCell>
        <mxCell id="DsEclp_MmNrwsCNi9r68-12" value="dbType" style="endArrow=open;endSize=12;html=1;rounded=0;curved=1;sketch=1;" edge="1" parent="DsEclp_MmNrwsCNi9r68-10">
          <mxGeometry width="160" relative="1" as="geometry">
            <mxPoint x="55" y="152" as="sourcePoint" />
            <mxPoint x="236" y="152" as="targetPoint" />
          </mxGeometry>
        </mxCell>
        <mxCell id="DsEclp_MmNrwsCNi9r68-13" value="解析sql、提取元数据" style="edgeStyle=orthogonalEdgeStyle;html=1;align=left;spacingLeft=2;endArrow=block;rounded=0;entryX=1;entryY=0;curved=1;fontStyle=1;sketch=1;" edge="1" parent="DsEclp_MmNrwsCNi9r68-10">
          <mxGeometry relative="1" as="geometry">
            <mxPoint x="55" y="200.00000000000003" as="sourcePoint" />
            <Array as="points">
              <mxPoint x="85" y="200.03" />
              <mxPoint x="85" y="220.03" />
            </Array>
            <mxPoint x="60" y="220.00000000000003" as="targetPoint" />
          </mxGeometry>
        </mxCell>
        <mxCell id="DsEclp_MmNrwsCNi9r68-14" value="" style="html=1;points=[];perimeter=orthogonalPerimeter;fontStyle=1;sketch=1;" vertex="1" parent="DsEclp_MmNrwsCNi9r68-10">
          <mxGeometry x="45" y="250" width="10" height="100" as="geometry" />
        </mxCell>
        <mxCell id="DsEclp_MmNrwsCNi9r68-15" value="user + 元数据" style="edgeStyle=orthogonalEdgeStyle;html=1;align=left;spacingLeft=2;endArrow=block;rounded=0;entryX=0.96;entryY=0.088;entryDx=0;entryDy=0;entryPerimeter=0;curved=1;fontStyle=1;sketch=1;" edge="1" parent="DsEclp_MmNrwsCNi9r68-10" target="DsEclp_MmNrwsCNi9r68-14">
          <mxGeometry relative="1" as="geometry">
            <mxPoint x="55" y="230" as="sourcePoint" />
            <Array as="points">
              <mxPoint x="85" y="230" />
              <mxPoint x="85" y="257" />
              <mxPoint x="60" y="257" />
            </Array>
            <mxPoint x="60" y="250" as="targetPoint" />
          </mxGeometry>
        </mxCell>
        <mxCell id="DsEclp_MmNrwsCNi9r68-16" value="校验操作权限" style="edgeStyle=orthogonalEdgeStyle;html=1;align=left;spacingLeft=2;endArrow=block;rounded=0;entryX=0.96;entryY=0.088;entryDx=0;entryDy=0;entryPerimeter=0;curved=1;fontStyle=1;sketch=1;" edge="1" parent="DsEclp_MmNrwsCNi9r68-10">
          <mxGeometry relative="1" as="geometry">
            <mxPoint x="55.400000000000006" y="290" as="sourcePoint" />
            <Array as="points">
              <mxPoint x="85.4" y="290" />
              <mxPoint x="85.4" y="317" />
              <mxPoint x="60.400000000000006" y="317" />
            </Array>
            <mxPoint x="54.999999999999915" y="318.79999999999995" as="targetPoint" />
          </mxGeometry>
        </mxCell>
        <mxCell id="DsEclp_MmNrwsCNi9r68-17" value="return" style="html=1;verticalAlign=bottom;endArrow=open;dashed=1;endSize=8;rounded=0;curved=1;fontStyle=1;sketch=1;" edge="1" parent="DsEclp_MmNrwsCNi9r68-10">
          <mxGeometry relative="1" as="geometry">
            <mxPoint x="-114" y="330" as="targetPoint" />
            <mxPoint x="45" y="330" as="sourcePoint" />
          </mxGeometry>
        </mxCell>
        <mxCell id="DsEclp_MmNrwsCNi9r68-18" value="请求请求" style="endArrow=open;endSize=12;html=1;rounded=0;curved=1;fontStyle=1;sketch=1;" edge="1" parent="1">
          <mxGeometry width="160" relative="1" as="geometry">
            <mxPoint x="-241" y="-233.08000000000004" as="sourcePoint" />
            <mxPoint x="-81" y="-233.08000000000004" as="targetPoint" />
          </mxGeometry>
        </mxCell>
        <mxCell id="DsEclp_MmNrwsCNi9r68-19" value="return" style="html=1;verticalAlign=bottom;endArrow=open;dashed=1;endSize=8;exitX=-0.4;exitY=0.748;rounded=0;exitDx=0;exitDy=0;exitPerimeter=0;curved=1;fontStyle=1;sketch=1;" edge="1" parent="1">
          <mxGeometry relative="1" as="geometry">
            <mxPoint x="-412.9999999999998" y="-40" as="targetPoint" />
            <mxPoint x="-252" y="-39.896000000000186" as="sourcePoint" />
          </mxGeometry>
        </mxCell>
        <mxCell id="DsEclp_MmNrwsCNi9r68-20" value="用户" style="shape=umlActor;verticalLabelPosition=bottom;verticalAlign=top;html=1;outlineConnect=0;fontStyle=1;sketch=1;fillColor=#d5e8d4;strokeColor=#82b366;" vertex="1" parent="1">
          <mxGeometry x="-520" y="-390" width="30" height="60" as="geometry" />
        </mxCell>
        <mxCell id="DsEclp_MmNrwsCNi9r68-21" value="SqlParser" style="swimlane;startSize=20;horizontal=1;containerType=tree;newEdgeStyle={&quot;edgeStyle&quot;:&quot;elbowEdgeStyle&quot;,&quot;startArrow&quot;:&quot;none&quot;,&quot;endArrow&quot;:&quot;none&quot;};sketch=1;fillColor=#d5e8d4;strokeColor=#82b366;" vertex="1" parent="1">
          <mxGeometry x="110" y="-390" width="580" height="270" as="geometry" />
        </mxCell>
        <mxCell id="DsEclp_MmNrwsCNi9r68-22" value="«interface»&lt;br&gt;&lt;b&gt;SelectSqlParser&lt;/b&gt;" style="html=1;sketch=1;" vertex="1" parent="DsEclp_MmNrwsCNi9r68-21">
          <mxGeometry x="289" y="30" width="110" height="40" as="geometry" />
        </mxCell>
        <mxCell id="DsEclp_MmNrwsCNi9r68-23" style="edgeStyle=orthogonalEdgeStyle;rounded=0;orthogonalLoop=1;jettySize=auto;html=1;labelBackgroundColor=#EBEBEB;endArrow=none;endFill=0;curved=1;sketch=1;" edge="1" parent="DsEclp_MmNrwsCNi9r68-21" source="DsEclp_MmNrwsCNi9r68-24">
          <mxGeometry relative="1" as="geometry">
            <mxPoint x="340" y="150" as="targetPoint" />
            <Array as="points">
              <mxPoint x="194" y="150" />
            </Array>
          </mxGeometry>
        </mxCell>
        <mxCell id="DsEclp_MmNrwsCNi9r68-24" value="&lt;p style=&quot;margin: 0px ; margin-top: 4px ; text-align: center&quot;&gt;&lt;b&gt;AbsractSqlParser&lt;/b&gt;&lt;br&gt;&lt;/p&gt;" style="verticalAlign=top;align=left;overflow=fill;fontSize=12;fontFamily=Helvetica;html=1;sketch=1;" vertex="1" parent="DsEclp_MmNrwsCNi9r68-21">
          <mxGeometry x="124" y="173" width="140" height="25" as="geometry" />
        </mxCell>
        <mxCell id="DsEclp_MmNrwsCNi9r68-25" value="&lt;p style=&quot;margin: 0px ; margin-top: 4px ; text-align: center&quot;&gt;&lt;b&gt;AbsractSqlParser&lt;/b&gt;&lt;br&gt;&lt;/p&gt;" style="verticalAlign=top;align=left;overflow=fill;fontSize=12;fontFamily=Helvetica;html=1;sketch=1;" vertex="1" parent="DsEclp_MmNrwsCNi9r68-21">
          <mxGeometry x="274" y="173" width="140" height="25" as="geometry" />
        </mxCell>
        <mxCell id="DsEclp_MmNrwsCNi9r68-26" value="&lt;p style=&quot;margin: 0px ; margin-top: 4px ; text-align: center&quot;&gt;&lt;b&gt;AbsractSqlParser&lt;/b&gt;&lt;br&gt;&lt;/p&gt;" style="verticalAlign=top;align=left;overflow=fill;fontSize=12;fontFamily=Helvetica;html=1;sketch=1;" vertex="1" parent="DsEclp_MmNrwsCNi9r68-21">
          <mxGeometry x="424" y="173" width="140" height="25" as="geometry" />
        </mxCell>
        <mxCell id="DsEclp_MmNrwsCNi9r68-27" value="&lt;p style=&quot;margin: 0px ; margin-top: 4px ; text-align: center&quot;&gt;&lt;b&gt;AbsractSqlParser&lt;/b&gt;&lt;br&gt;&lt;/p&gt;" style="verticalAlign=top;align=left;overflow=fill;fontSize=12;fontFamily=Helvetica;html=1;sketch=1;" vertex="1" parent="DsEclp_MmNrwsCNi9r68-21">
          <mxGeometry x="274" y="100" width="140" height="25" as="geometry" />
        </mxCell>
        <mxCell id="DsEclp_MmNrwsCNi9r68-28" value="" style="endArrow=block;dashed=1;endFill=0;endSize=12;html=1;rounded=0;dashPattern=1 1;labelBackgroundColor=#EBEBEB;entryX=0.495;entryY=1.022;entryDx=0;entryDy=0;entryPerimeter=0;exitX=0.5;exitY=0;exitDx=0;exitDy=0;curved=1;sketch=1;" edge="1" parent="DsEclp_MmNrwsCNi9r68-21" source="DsEclp_MmNrwsCNi9r68-27" target="DsEclp_MmNrwsCNi9r68-22">
          <mxGeometry width="160" relative="1" as="geometry">
            <mxPoint x="344" y="100" as="sourcePoint" />
            <mxPoint x="314" y="90" as="targetPoint" />
          </mxGeometry>
        </mxCell>
        <mxCell id="DsEclp_MmNrwsCNi9r68-29" value="" style="endArrow=block;endSize=16;endFill=0;html=1;rounded=0;labelBackgroundColor=#EBEBEB;entryX=0.5;entryY=1;entryDx=0;entryDy=0;exitX=0.5;exitY=0;exitDx=0;exitDy=0;curved=1;sketch=1;" edge="1" parent="DsEclp_MmNrwsCNi9r68-21" source="DsEclp_MmNrwsCNi9r68-25" target="DsEclp_MmNrwsCNi9r68-27">
          <mxGeometry x="-0.1364" y="-30" width="160" relative="1" as="geometry">
            <mxPoint x="185" y="150" as="sourcePoint" />
            <mxPoint x="345" y="150" as="targetPoint" />
            <mxPoint as="offset" />
          </mxGeometry>
        </mxCell>
        <mxCell id="DsEclp_MmNrwsCNi9r68-30" value="&lt;p style=&quot;margin: 0px ; margin-top: 4px ; text-align: center&quot;&gt;&lt;b&gt;SqlParserContext&lt;/b&gt;&lt;br&gt;&lt;/p&gt;&lt;hr size=&quot;1&quot;&gt;&lt;div style=&quot;height: 2px&quot;&gt;&amp;nbsp;- sqlParserMapMap&lt;/div&gt;" style="verticalAlign=top;align=left;overflow=fill;fontSize=12;fontFamily=Helvetica;html=1;sketch=1;" vertex="1" parent="DsEclp_MmNrwsCNi9r68-21">
          <mxGeometry x="10" y="210" width="140" height="50" as="geometry" />
        </mxCell>
        <mxCell id="DsEclp_MmNrwsCNi9r68-31" value="" style="endArrow=none;html=1;endSize=12;startArrow=diamondThin;startSize=14;startFill=0;edgeStyle=orthogonalEdgeStyle;align=left;verticalAlign=bottom;rounded=0;labelBackgroundColor=#EBEBEB;entryX=0.5;entryY=1;entryDx=0;entryDy=0;endFill=0;exitX=1;exitY=0.4;exitDx=0;exitDy=0;exitPerimeter=0;curved=1;sketch=1;" edge="1" parent="DsEclp_MmNrwsCNi9r68-21" source="DsEclp_MmNrwsCNi9r68-30">
          <mxGeometry x="-1" y="3" relative="1" as="geometry">
            <mxPoint x="167" y="230" as="sourcePoint" />
            <mxPoint x="351" y="198" as="targetPoint" />
            <Array as="points">
              <mxPoint x="351" y="230" />
            </Array>
          </mxGeometry>
        </mxCell>
        <mxCell id="DsEclp_MmNrwsCNi9r68-32" value="&lt;b&gt;parser实例&lt;/b&gt;" style="html=1;verticalAlign=bottom;endArrow=open;dashed=1;endSize=8;exitX=-0.4;exitY=0.748;rounded=0;exitDx=0;exitDy=0;exitPerimeter=0;curved=1;sketch=1;" edge="1" parent="1">
          <mxGeometry relative="1" as="geometry">
            <mxPoint x="-70" y="-200.0000000000001" as="targetPoint" />
            <mxPoint x="110" y="-199.89600000000007" as="sourcePoint" />
          </mxGeometry>
        </mxCell>
        <mxCell id="DsEclp_MmNrwsCNi9r68-33" style="edgeStyle=orthogonalEdgeStyle;rounded=0;orthogonalLoop=1;jettySize=auto;html=1;labelBackgroundColor=#EBEBEB;endArrow=none;endFill=0;curved=1;sketch=1;" edge="1" parent="1" source="DsEclp_MmNrwsCNi9r68-26">
          <mxGeometry relative="1" as="geometry">
            <mxPoint x="450" y="-240.0000000000001" as="targetPoint" />
            <Array as="points">
              <mxPoint x="624" y="-240" />
            </Array>
          </mxGeometry>
        </mxCell>
        <mxCell id="DsEclp_MmNrwsCNi9r68-34" style="edgeStyle=orthogonalEdgeStyle;rounded=0;orthogonalLoop=1;jettySize=auto;html=1;labelBackgroundColor=#EBEBEB;endArrow=none;endFill=0;curved=1;sketch=1;" edge="1" parent="1" source="DsEclp_MmNrwsCNi9r68-26">
          <mxGeometry relative="1" as="geometry">
            <mxPoint x="310" y="-160" as="targetPoint" />
            <Array as="points">
              <mxPoint x="605" y="-160" />
            </Array>
          </mxGeometry>
        </mxCell>
        <mxCell id="DsEclp_MmNrwsCNi9r68-35" value="" style="group;sketch=1;fillColor=#d5e8d4;strokeColor=#82b366;" vertex="1" connectable="0" parent="1">
          <mxGeometry x="50" y="-109" width="230" height="99" as="geometry" />
        </mxCell>
        <mxCell id="DsEclp_MmNrwsCNi9r68-36" value="&lt;b&gt;数据权限配置&lt;/b&gt;" style="shape=umlFrame;whiteSpace=wrap;html=1;width=90;height=20;sketch=1;" vertex="1" parent="DsEclp_MmNrwsCNi9r68-35">
          <mxGeometry x="20" width="210" height="99" as="geometry" />
        </mxCell>
        <mxCell id="DsEclp_MmNrwsCNi9r68-37" value="&lt;div style=&quot;font-size: 14px&quot;&gt;&lt;ul&gt;&lt;li&gt;&lt;b&gt;user&lt;/b&gt;&lt;/li&gt;&lt;li&gt;&lt;b&gt;role&lt;/b&gt;&lt;/li&gt;&lt;li&gt;&lt;b&gt;permission&lt;/b&gt;&lt;/li&gt;&lt;li&gt;&lt;b&gt;data-permission-config&lt;/b&gt;&lt;/li&gt;&lt;/ul&gt;&lt;/div&gt;" style="text;html=1;align=left;verticalAlign=middle;resizable=0;points=[];autosize=1;strokeColor=none;fillColor=none;sketch=1;" vertex="1" parent="DsEclp_MmNrwsCNi9r68-35">
          <mxGeometry y="12.375" width="220" height="90" as="geometry" />
        </mxCell>
        <mxCell id="DsEclp_MmNrwsCNi9r68-38" style="edgeStyle=orthogonalEdgeStyle;rounded=0;orthogonalLoop=1;jettySize=auto;html=1;labelBackgroundColor=#EBEBEB;fontSize=14;endArrow=none;endFill=0;curved=1;sketch=1;" edge="1" parent="1" source="DsEclp_MmNrwsCNi9r68-24">
          <mxGeometry relative="1" as="geometry">
            <mxPoint x="303.99999999999955" y="-160" as="targetPoint" />
          </mxGeometry>
        </mxCell>
        <mxCell id="DsEclp_MmNrwsCNi9r68-39" value="查询权限配置" style="endArrow=open;endSize=12;html=1;rounded=0;curved=1;fontStyle=1;sketch=1;" edge="1" parent="1">
          <mxGeometry width="160" relative="1" as="geometry">
            <mxPoint x="-70" y="-99" as="sourcePoint" />
            <mxPoint x="71" y="-99" as="targetPoint" />
          </mxGeometry>
        </mxCell>
      </root>
    </mxGraphModel>
  </diagram>
  <diagram id="_TbJvBUVhJ8lGpobgWeb" name="第 4 页">
    <mxGraphModel dx="2249" dy="1883" grid="1" gridSize="10" guides="1" tooltips="1" connect="1" arrows="1" fold="1" page="1" pageScale="1" pageWidth="827" pageHeight="1169" math="0" shadow="0">
      <root>
        <mxCell id="0" />
        <mxCell id="1" parent="0" />
        <mxCell id="pkEVNov6Am0UMhhLX_JL-1" value="&lt;span&gt;Superset WEB&lt;/span&gt;" style="shape=umlLifeline;perimeter=lifelinePerimeter;whiteSpace=wrap;html=1;container=1;collapsible=0;recursiveResize=0;outlineConnect=0;fontStyle=1;sketch=1;fillColor=#d5e8d4;strokeColor=#82b366;" vertex="1" parent="1">
          <mxGeometry x="-470" y="-380" width="100" height="500" as="geometry" />
        </mxCell>
        <mxCell id="pkEVNov6Am0UMhhLX_JL-17" value="" style="html=1;points=[];perimeter=orthogonalPerimeter;fontStyle=1;sketch=1;fillColor=#d5e8d4;strokeColor=#82b366;" vertex="1" parent="pkEVNov6Am0UMhhLX_JL-1">
          <mxGeometry x="45" y="52" width="10" height="188" as="geometry" />
        </mxCell>
        <mxCell id="pkEVNov6Am0UMhhLX_JL-49" value="&lt;div&gt;&lt;br&gt;&lt;/div&gt;" style="endArrow=classicThin;endSize=12;html=1;rounded=0;align=left;fontStyle=1;sketch=1;endFill=1;curved=1;fillColor=#b0e3e6;strokeColor=#0e8088;" edge="1" parent="pkEVNov6Am0UMhhLX_JL-1" target="pkEVNov6Am0UMhhLX_JL-7">
          <mxGeometry x="-0.2375" y="20" width="160" relative="1" as="geometry">
            <mxPoint x="-75" y="270" as="sourcePoint" />
            <mxPoint x="45" y="270" as="targetPoint" />
            <mxPoint as="offset" />
          </mxGeometry>
        </mxCell>
        <mxCell id="pkEVNov6Am0UMhhLX_JL-50" value="TDP Portal访问" style="edgeLabel;html=1;align=center;verticalAlign=middle;resizable=0;points=[];fontSize=14;" vertex="1" connectable="0" parent="pkEVNov6Am0UMhhLX_JL-49">
          <mxGeometry x="0.6004" relative="1" as="geometry">
            <mxPoint x="-41" y="10" as="offset" />
          </mxGeometry>
        </mxCell>
        <mxCell id="pkEVNov6Am0UMhhLX_JL-80" value="权限拒绝" style="html=1;verticalAlign=bottom;endArrow=classicThin;dashed=1;endSize=8;rounded=0;fontStyle=1;sketch=1;endFill=1;curved=1;fillColor=#d5e8d4;strokeColor=#82b366;" edge="1" parent="pkEVNov6Am0UMhhLX_JL-1">
          <mxGeometry x="0.0257" y="-5" relative="1" as="geometry">
            <mxPoint x="60" y="167" as="targetPoint" />
            <mxPoint x="505" y="167" as="sourcePoint" />
            <mxPoint as="offset" />
          </mxGeometry>
        </mxCell>
        <mxCell id="pkEVNov6Am0UMhhLX_JL-7" value="TDP Portal" style="shape=umlLifeline;perimeter=lifelinePerimeter;whiteSpace=wrap;html=1;container=1;collapsible=0;recursiveResize=0;outlineConnect=0;fontStyle=1;sketch=1;fillColor=#b0e3e6;strokeColor=#0e8088;" vertex="1" parent="1">
          <mxGeometry x="-351" y="-380" width="100" height="500" as="geometry" />
        </mxCell>
        <mxCell id="pkEVNov6Am0UMhhLX_JL-2" value="" style="html=1;points=[];perimeter=orthogonalPerimeter;fontStyle=1;sketch=1;fillColor=#b0e3e6;strokeColor=#0e8088;" vertex="1" parent="pkEVNov6Am0UMhhLX_JL-7">
          <mxGeometry x="45" y="250" width="10" height="210" as="geometry" />
        </mxCell>
        <mxCell id="pkEVNov6Am0UMhhLX_JL-3" value="sql生成" style="edgeStyle=orthogonalEdgeStyle;html=1;align=left;spacingLeft=2;endArrow=block;rounded=0;entryX=1;entryY=0;fontStyle=1;sketch=1;curved=1;fillColor=#b0e3e6;strokeColor=#0e8088;" edge="1" parent="pkEVNov6Am0UMhhLX_JL-7">
          <mxGeometry relative="1" as="geometry">
            <mxPoint x="55" y="280" as="sourcePoint" />
            <Array as="points">
              <mxPoint x="95" y="280" />
              <mxPoint x="95" y="300" />
            </Array>
            <mxPoint x="60" y="300" as="targetPoint" />
          </mxGeometry>
        </mxCell>
        <mxCell id="pkEVNov6Am0UMhhLX_JL-15" value="SSO用户" style="shape=umlActor;verticalLabelPosition=bottom;verticalAlign=top;html=1;outlineConnect=0;fontStyle=1;sketch=1;fillColor=#d5e8d4;strokeColor=#82b366;" vertex="1" parent="1">
          <mxGeometry x="-635" y="-400" width="30" height="60" as="geometry" />
        </mxCell>
        <mxCell id="pkEVNov6Am0UMhhLX_JL-16" value="&lt;span&gt;用户&lt;/span&gt;" style="shape=umlLifeline;perimeter=lifelinePerimeter;whiteSpace=wrap;html=1;container=1;collapsible=0;recursiveResize=0;outlineConnect=0;fontStyle=1;sketch=1;fillColor=#d5e8d4;strokeColor=#82b366;" vertex="1" parent="1">
          <mxGeometry x="-595" y="-380" width="100" height="500" as="geometry" />
        </mxCell>
        <mxCell id="pkEVNov6Am0UMhhLX_JL-47" value="&lt;div&gt;&lt;br&gt;&lt;/div&gt;" style="endArrow=open;endSize=12;html=1;rounded=0;align=left;fontStyle=1;sketch=1;curved=1;fillColor=#d5e8d4;strokeColor=#82b366;" edge="1" parent="pkEVNov6Am0UMhhLX_JL-16">
          <mxGeometry x="-0.2375" y="20" width="160" relative="1" as="geometry">
            <mxPoint x="50" y="60" as="sourcePoint" />
            <mxPoint x="170" y="60" as="targetPoint" />
            <mxPoint as="offset" />
          </mxGeometry>
        </mxCell>
        <mxCell id="pkEVNov6Am0UMhhLX_JL-48" value="superset访问" style="edgeLabel;html=1;align=center;verticalAlign=middle;resizable=0;points=[];fontSize=14;" vertex="1" connectable="0" parent="pkEVNov6Am0UMhhLX_JL-47">
          <mxGeometry x="0.6004" relative="1" as="geometry">
            <mxPoint x="-41" y="10" as="offset" />
          </mxGeometry>
        </mxCell>
        <mxCell id="pkEVNov6Am0UMhhLX_JL-24" value="DATA-SERVICE" style="shape=umlLifeline;perimeter=lifelinePerimeter;whiteSpace=wrap;html=1;container=1;collapsible=0;recursiveResize=0;outlineConnect=0;fontStyle=1;sketch=1;fillColor=#b0e3e6;strokeColor=#0e8088;" vertex="1" parent="1">
          <mxGeometry x="-240" y="-380" width="100" height="500" as="geometry" />
        </mxCell>
        <mxCell id="pkEVNov6Am0UMhhLX_JL-25" value="" style="html=1;points=[];perimeter=orthogonalPerimeter;fontStyle=1;sketch=1;fillColor=#b0e3e6;strokeColor=#0e8088;" vertex="1" parent="pkEVNov6Am0UMhhLX_JL-24">
          <mxGeometry x="45" y="260" width="10" height="190" as="geometry" />
        </mxCell>
        <mxCell id="pkEVNov6Am0UMhhLX_JL-51" value="&lt;div&gt;&lt;br&gt;&lt;/div&gt;" style="endArrow=classicThin;endSize=12;html=1;rounded=0;align=left;fontStyle=1;sketch=1;endFill=1;curved=1;fillColor=#b0e3e6;strokeColor=#0e8088;" edge="1" parent="pkEVNov6Am0UMhhLX_JL-24">
          <mxGeometry x="-0.2375" y="20" width="160" relative="1" as="geometry">
            <mxPoint x="-54" y="314.57" as="sourcePoint" />
            <mxPoint x="46" y="315" as="targetPoint" />
            <mxPoint as="offset" />
          </mxGeometry>
        </mxCell>
        <mxCell id="pkEVNov6Am0UMhhLX_JL-52" value="sql提交" style="edgeLabel;html=1;align=center;verticalAlign=middle;resizable=0;points=[];fontSize=14;" vertex="1" connectable="0" parent="pkEVNov6Am0UMhhLX_JL-51">
          <mxGeometry x="0.6004" relative="1" as="geometry">
            <mxPoint x="-41" y="10" as="offset" />
          </mxGeometry>
        </mxCell>
        <mxCell id="pkEVNov6Am0UMhhLX_JL-27" value="USER-SERVICE" style="shape=umlLifeline;perimeter=lifelinePerimeter;whiteSpace=wrap;html=1;container=1;collapsible=0;recursiveResize=0;outlineConnect=0;fontStyle=1;sketch=1;fillColor=#b0e3e6;strokeColor=#0e8088;" vertex="1" parent="1">
          <mxGeometry x="-120" y="-380" width="100" height="500" as="geometry" />
        </mxCell>
        <mxCell id="pkEVNov6Am0UMhhLX_JL-31" value="" style="html=1;points=[];perimeter=orthogonalPerimeter;rounded=0;shadow=0;glass=0;sketch=1;fontSize=14;" vertex="1" parent="pkEVNov6Am0UMhhLX_JL-27">
          <mxGeometry x="45" y="92" width="10" height="60" as="geometry" />
        </mxCell>
        <mxCell id="pkEVNov6Am0UMhhLX_JL-56" value="" style="html=1;points=[];perimeter=orthogonalPerimeter;rounded=0;shadow=0;glass=0;sketch=1;fontSize=14;fillColor=#b0e3e6;strokeColor=#0e8088;" vertex="1" parent="pkEVNov6Am0UMhhLX_JL-27">
          <mxGeometry x="45" y="330" width="10" height="60" as="geometry" />
        </mxCell>
        <mxCell id="pkEVNov6Am0UMhhLX_JL-59" value="权限拒绝" style="html=1;verticalAlign=bottom;endArrow=classicThin;dashed=1;endSize=8;rounded=0;fontStyle=1;sketch=1;endFill=1;curved=1;fillColor=#b0e3e6;strokeColor=#0e8088;" edge="1" parent="pkEVNov6Am0UMhhLX_JL-27">
          <mxGeometry x="0.0257" y="-5" relative="1" as="geometry">
            <mxPoint x="-170" y="400" as="targetPoint" />
            <mxPoint x="156" y="400.0000000000002" as="sourcePoint" />
            <mxPoint as="offset" />
          </mxGeometry>
        </mxCell>
        <mxCell id="pkEVNov6Am0UMhhLX_JL-76" value="&lt;div&gt;&lt;br&gt;&lt;/div&gt;" style="endArrow=classicThin;endSize=12;html=1;rounded=0;align=left;fontStyle=1;sketch=1;endFill=1;curved=1;fillColor=#b0e3e6;strokeColor=#0e8088;" edge="1" parent="pkEVNov6Am0UMhhLX_JL-27">
          <mxGeometry x="-0.2375" y="20" width="160" relative="1" as="geometry">
            <mxPoint x="-60" y="320" as="sourcePoint" />
            <mxPoint x="169.5" y="320" as="targetPoint" />
            <mxPoint as="offset" />
          </mxGeometry>
        </mxCell>
        <mxCell id="pkEVNov6Am0UMhhLX_JL-77" value="查询结果" style="html=1;verticalAlign=bottom;endArrow=classic;dashed=1;endSize=8;exitX=-0.339;exitY=0.94;rounded=0;exitDx=0;exitDy=0;exitPerimeter=0;fontStyle=1;sketch=1;endFill=1;curved=1;fillColor=#b0e3e6;strokeColor=#0e8088;" edge="1" parent="pkEVNov6Am0UMhhLX_JL-27">
          <mxGeometry relative="1" as="geometry">
            <mxPoint x="-170" y="440" as="targetPoint" />
            <mxPoint x="163.61000000000035" y="439.9999999999998" as="sourcePoint" />
          </mxGeometry>
        </mxCell>
        <mxCell id="pkEVNov6Am0UMhhLX_JL-78" value="USER-SERVICE" style="shape=umlLifeline;perimeter=lifelinePerimeter;whiteSpace=wrap;html=1;container=1;collapsible=0;recursiveResize=0;outlineConnect=0;fontStyle=1;sketch=1;fillColor=#b0e3e6;strokeColor=#0e8088;" vertex="1" parent="pkEVNov6Am0UMhhLX_JL-27">
          <mxGeometry width="100" height="500" as="geometry" />
        </mxCell>
        <mxCell id="pkEVNov6Am0UMhhLX_JL-79" value="" style="html=1;points=[];perimeter=orthogonalPerimeter;rounded=0;shadow=0;glass=0;sketch=1;fontSize=14;fillColor=#d5e8d4;strokeColor=#82b366;" vertex="1" parent="pkEVNov6Am0UMhhLX_JL-78">
          <mxGeometry x="45" y="92" width="10" height="60" as="geometry" />
        </mxCell>
        <mxCell id="pkEVNov6Am0UMhhLX_JL-81" value="" style="html=1;points=[];perimeter=orthogonalPerimeter;rounded=0;shadow=0;glass=0;sketch=1;fontSize=14;fillColor=#b0e3e6;strokeColor=#0e8088;" vertex="1" parent="pkEVNov6Am0UMhhLX_JL-78">
          <mxGeometry x="45" y="330" width="10" height="60" as="geometry" />
        </mxCell>
        <mxCell id="pkEVNov6Am0UMhhLX_JL-83" value="&lt;div&gt;&lt;br&gt;&lt;/div&gt;" style="endArrow=classicThin;endSize=12;html=1;rounded=0;align=left;fontStyle=1;sketch=1;endFill=1;curved=1;fillColor=#b0e3e6;strokeColor=#0e8088;" edge="1" parent="pkEVNov6Am0UMhhLX_JL-78">
          <mxGeometry x="-0.2375" y="20" width="160" relative="1" as="geometry">
            <mxPoint x="-60" y="320" as="sourcePoint" />
            <mxPoint x="169.5" y="320" as="targetPoint" />
            <mxPoint as="offset" />
          </mxGeometry>
        </mxCell>
        <mxCell id="pkEVNov6Am0UMhhLX_JL-29" value="Superset 后台" style="shape=umlLifeline;perimeter=lifelinePerimeter;whiteSpace=wrap;html=1;container=1;collapsible=0;recursiveResize=0;outlineConnect=0;fontStyle=1;sketch=1;fillColor=#dae8fc;strokeColor=#6c8ebf;" vertex="1" parent="1">
          <mxGeometry y="-380" width="100" height="500" as="geometry" />
        </mxCell>
        <mxCell id="pkEVNov6Am0UMhhLX_JL-30" value="" style="html=1;points=[];perimeter=orthogonalPerimeter;fontStyle=1;sketch=1;fillColor=#d5e8d4;strokeColor=#82b366;" vertex="1" parent="pkEVNov6Am0UMhhLX_JL-29">
          <mxGeometry x="45" y="52" width="10" height="170" as="geometry" />
        </mxCell>
        <mxCell id="pkEVNov6Am0UMhhLX_JL-28" value="" style="html=1;points=[];perimeter=orthogonalPerimeter;fontStyle=1;sketch=1;fillColor=#b0e3e6;strokeColor=#0e8088;" vertex="1" parent="pkEVNov6Am0UMhhLX_JL-29">
          <mxGeometry x="45" y="290" width="10" height="170" as="geometry" />
        </mxCell>
        <mxCell id="pkEVNov6Am0UMhhLX_JL-22" value="&lt;div&gt;&lt;br&gt;&lt;/div&gt;" style="endArrow=classic;endSize=12;html=1;rounded=0;align=left;fontStyle=1;sketch=1;endFill=1;exitX=1.028;exitY=0.069;exitDx=0;exitDy=0;exitPerimeter=0;curved=1;fillColor=#d5e8d4;strokeColor=#82b366;" edge="1" parent="1" source="pkEVNov6Am0UMhhLX_JL-17">
          <mxGeometry x="-0.2375" y="20" width="160" relative="1" as="geometry">
            <mxPoint x="-585" y="-318" as="sourcePoint" />
            <mxPoint x="49.5" y="-313.51" as="targetPoint" />
            <mxPoint as="offset" />
          </mxGeometry>
        </mxCell>
        <mxCell id="pkEVNov6Am0UMhhLX_JL-32" value="权限校验" style="html=1;verticalAlign=bottom;endArrow=block;entryX=1;entryY=0;rounded=0;labelBackgroundColor=#EBEBEB;fontSize=14;curved=1;" edge="1" target="pkEVNov6Am0UMhhLX_JL-31" parent="1">
          <mxGeometry relative="1" as="geometry">
            <mxPoint x="30" y="-288" as="sourcePoint" />
          </mxGeometry>
        </mxCell>
        <mxCell id="pkEVNov6Am0UMhhLX_JL-33" value="是否允许" style="html=1;verticalAlign=bottom;endArrow=classic;dashed=1;endSize=8;exitX=1;exitY=0.95;rounded=0;labelBackgroundColor=#EBEBEB;fontSize=14;endFill=1;curved=1;" edge="1" source="pkEVNov6Am0UMhhLX_JL-31" parent="1">
          <mxGeometry relative="1" as="geometry">
            <mxPoint x="40" y="-231" as="targetPoint" />
          </mxGeometry>
        </mxCell>
        <mxCell id="pkEVNov6Am0UMhhLX_JL-35" value="数仓" style="shape=umlLifeline;perimeter=lifelinePerimeter;whiteSpace=wrap;html=1;container=1;collapsible=0;recursiveResize=0;outlineConnect=0;fontStyle=1;sketch=1;fillColor=#d5e8d4;strokeColor=#82b366;" vertex="1" parent="1">
          <mxGeometry x="120" y="-380" width="100" height="500" as="geometry" />
        </mxCell>
        <mxCell id="pkEVNov6Am0UMhhLX_JL-45" value="返回结果" style="html=1;verticalAlign=bottom;endArrow=classic;dashed=1;endSize=8;exitX=-0.4;exitY=0.748;rounded=0;exitDx=0;exitDy=0;exitPerimeter=0;fontStyle=1;sketch=1;endFill=1;curved=1;" edge="1" parent="pkEVNov6Am0UMhhLX_JL-35">
          <mxGeometry relative="1" as="geometry">
            <mxPoint x="-60" y="202" as="targetPoint" />
            <mxPoint x="81" y="202.10399999999981" as="sourcePoint" />
          </mxGeometry>
        </mxCell>
        <mxCell id="pkEVNov6Am0UMhhLX_JL-42" value="" style="group;fillColor=#d5e8d4;strokeColor=#82b366;" vertex="1" connectable="0" parent="1">
          <mxGeometry x="200" y="-268" width="120" height="110" as="geometry" />
        </mxCell>
        <mxCell id="pkEVNov6Am0UMhhLX_JL-40" value="数仓" style="shape=umlFrame;whiteSpace=wrap;html=1;rounded=0;shadow=0;glass=0;sketch=1;fontSize=14;" vertex="1" parent="pkEVNov6Am0UMhhLX_JL-42">
          <mxGeometry width="120" height="110" as="geometry" />
        </mxCell>
        <mxCell id="pkEVNov6Am0UMhhLX_JL-41" value="&lt;div style=&quot;text-align: left&quot;&gt;&lt;span&gt;MySQL&lt;/span&gt;&lt;/div&gt;&lt;div style=&quot;text-align: left&quot;&gt;&lt;span&gt;ClickHouse&lt;/span&gt;&lt;/div&gt;&lt;div style=&quot;text-align: left&quot;&gt;&lt;span&gt;ElasticSearch&lt;/span&gt;&lt;/div&gt;" style="text;html=1;align=center;verticalAlign=middle;resizable=0;points=[];autosize=1;strokeColor=none;fillColor=none;fontSize=14;" vertex="1" parent="pkEVNov6Am0UMhhLX_JL-42">
          <mxGeometry y="40" width="100" height="60" as="geometry" />
        </mxCell>
        <mxCell id="pkEVNov6Am0UMhhLX_JL-43" value="&lt;div&gt;&lt;br&gt;&lt;/div&gt;" style="endArrow=open;endSize=12;html=1;rounded=0;align=left;fontStyle=1;sketch=1;curved=1;" edge="1" parent="1">
          <mxGeometry x="-0.2375" y="20" width="160" relative="1" as="geometry">
            <mxPoint x="60" y="-203" as="sourcePoint" />
            <mxPoint x="200" y="-203" as="targetPoint" />
            <mxPoint as="offset" />
          </mxGeometry>
        </mxCell>
        <mxCell id="pkEVNov6Am0UMhhLX_JL-44" value="执行查询" style="edgeLabel;html=1;align=center;verticalAlign=middle;resizable=0;points=[];fontSize=14;" vertex="1" connectable="0" parent="pkEVNov6Am0UMhhLX_JL-43">
          <mxGeometry x="-0.1922" y="-2" relative="1" as="geometry">
            <mxPoint x="3" y="-12" as="offset" />
          </mxGeometry>
        </mxCell>
        <mxCell id="pkEVNov6Am0UMhhLX_JL-57" value="执行权限校验" style="html=1;verticalAlign=bottom;endArrow=block;entryX=1;entryY=0;rounded=0;labelBackgroundColor=#EBEBEB;fontSize=14;curved=1;" edge="1" target="pkEVNov6Am0UMhhLX_JL-56" parent="1">
          <mxGeometry x="-0.0476" y="20" relative="1" as="geometry">
            <mxPoint x="40" y="-50" as="sourcePoint" />
            <mxPoint as="offset" />
          </mxGeometry>
        </mxCell>
        <mxCell id="pkEVNov6Am0UMhhLX_JL-58" value="权限验证结果" style="html=1;verticalAlign=bottom;endArrow=open;dashed=1;endSize=8;exitX=1;exitY=0.95;rounded=0;labelBackgroundColor=#EBEBEB;fontSize=14;curved=1;" edge="1" source="pkEVNov6Am0UMhhLX_JL-56" parent="1" target="pkEVNov6Am0UMhhLX_JL-29">
          <mxGeometry relative="1" as="geometry">
            <mxPoint x="-5" y="7" as="targetPoint" />
          </mxGeometry>
        </mxCell>
        <mxCell id="pkEVNov6Am0UMhhLX_JL-64" value="返回结果" style="html=1;verticalAlign=bottom;endArrow=classic;dashed=1;endSize=8;exitX=-0.4;exitY=0.748;rounded=0;exitDx=0;exitDy=0;exitPerimeter=0;fontStyle=1;sketch=1;endFill=1;curved=1;fillColor=#b0e3e6;strokeColor=#0e8088;" edge="1" parent="1">
          <mxGeometry relative="1" as="geometry">
            <mxPoint x="60" y="50.00000000000023" as="targetPoint" />
            <mxPoint x="201" y="50.103999999999814" as="sourcePoint" />
          </mxGeometry>
        </mxCell>
        <mxCell id="pkEVNov6Am0UMhhLX_JL-65" value="" style="group;fillColor=#b0e3e6;strokeColor=#0e8088;" vertex="1" connectable="0" parent="1">
          <mxGeometry x="200" y="-40" width="120" height="110" as="geometry" />
        </mxCell>
        <mxCell id="pkEVNov6Am0UMhhLX_JL-66" value="数仓" style="shape=umlFrame;whiteSpace=wrap;html=1;rounded=0;shadow=0;glass=0;sketch=1;fontSize=14;" vertex="1" parent="pkEVNov6Am0UMhhLX_JL-65">
          <mxGeometry width="120" height="110" as="geometry" />
        </mxCell>
        <mxCell id="pkEVNov6Am0UMhhLX_JL-67" value="&lt;div style=&quot;text-align: left&quot;&gt;&lt;span&gt;MySQL&lt;/span&gt;&lt;/div&gt;&lt;div style=&quot;text-align: left&quot;&gt;&lt;span&gt;ClickHouse&lt;/span&gt;&lt;/div&gt;&lt;div style=&quot;text-align: left&quot;&gt;&lt;span&gt;ElasticSearch&lt;/span&gt;&lt;/div&gt;" style="text;html=1;align=center;verticalAlign=middle;resizable=0;points=[];autosize=1;strokeColor=none;fillColor=none;fontSize=14;" vertex="1" parent="pkEVNov6Am0UMhhLX_JL-65">
          <mxGeometry y="40" width="100" height="60" as="geometry" />
        </mxCell>
        <mxCell id="pkEVNov6Am0UMhhLX_JL-68" value="&lt;div&gt;&lt;br&gt;&lt;/div&gt;" style="endArrow=open;endSize=12;html=1;rounded=0;align=left;fontStyle=1;sketch=1;curved=1;fillColor=#b0e3e6;strokeColor=#0e8088;" edge="1" parent="1">
          <mxGeometry x="-0.2375" y="20" width="160" relative="1" as="geometry">
            <mxPoint x="60" y="25.000000000000227" as="sourcePoint" />
            <mxPoint x="200" y="25.000000000000227" as="targetPoint" />
            <mxPoint as="offset" />
          </mxGeometry>
        </mxCell>
        <mxCell id="pkEVNov6Am0UMhhLX_JL-69" value="执行查询" style="edgeLabel;html=1;align=center;verticalAlign=middle;resizable=0;points=[];fontSize=14;" vertex="1" connectable="0" parent="pkEVNov6Am0UMhhLX_JL-68">
          <mxGeometry x="-0.1922" y="-2" relative="1" as="geometry">
            <mxPoint x="3" y="-12" as="offset" />
          </mxGeometry>
        </mxCell>
        <mxCell id="pkEVNov6Am0UMhhLX_JL-71" value="Portal用户" style="shape=umlActor;verticalLabelPosition=bottom;verticalAlign=top;html=1;outlineConnect=0;fontStyle=1;sketch=1;fillColor=#b0e3e6;strokeColor=#0e8088;" vertex="1" parent="1">
          <mxGeometry x="-635" y="-150" width="30" height="60" as="geometry" />
        </mxCell>
        <mxCell id="pkEVNov6Am0UMhhLX_JL-46" value="查询结果" style="html=1;verticalAlign=bottom;endArrow=classic;dashed=1;endSize=8;exitX=-0.339;exitY=0.94;rounded=0;exitDx=0;exitDy=0;exitPerimeter=0;fontStyle=1;sketch=1;endFill=1;curved=1;fillColor=#d5e8d4;strokeColor=#82b366;" edge="1" parent="1" source="pkEVNov6Am0UMhhLX_JL-30">
          <mxGeometry relative="1" as="geometry">
            <mxPoint x="-410" y="-170" as="targetPoint" />
            <mxPoint x="171.83000000000004" y="-167.99600000000018" as="sourcePoint" />
          </mxGeometry>
        </mxCell>
      </root>
    </mxGraphModel>
  </diagram>
</mxfile>
